<svg xmlns:xlink="http://www.w3.org/1999/xlink" xmlns="http://www.w3.org/2000/svg" class="_desktop-svg-goods" viewBox="0 0 1131 666" width="1547"  height="1110" >
          <path fill-rule="evenodd" class="fill-red" clip-rule="evenodd" d="M226.462 95.0221C296.526 -10.2954 381.237 -3.98836 480.593 113.947C482.831 116.603 485.012 119.252 487.138 121.894C511.71 80.9675 548.95 46.2684 596.341 24.1697C698.753 -23.586 815.772 2.79559 881.795 81.4382C911.334 57.7209 945.904 45.3021 981.762 48.4393C1074.34 56.5385 1140.45 165.25 1129.42 291.254C1118.4 417.257 1034.42 512.838 941.841 504.738C937.595 504.367 933.404 503.784 929.273 502.997C935.874 557.424 921.762 606.711 885.657 637.007C816.234 695.26 691.785 661.242 607.693 561.025C585.551 534.637 568.415 506.292 556.451 477.785C443.111 590.836 322.566 610.809 194.817 537.7C178.849 528.563 167.957 512.606 165.265 494.407L154.25 419.97L99.7065 413.31C37.7079 405.738 -6.4138 349.34 1.15727 287.342C2.60493 275.488 5.92081 263.939 10.9813 253.122C19.3114 235.319 23.8654 215.726 24.6451 194.343C27.8281 106.986 78.23 79.662 175.85 112.371C194.703 118.689 215.45 111.577 226.463 95.022L226.462 95.0221Z" fill="#EF4431"></path>
          </svg>