<?xml version="1.0" encoding="utf-8"?>
<!-- Generator: Adobe Illustrator 26.2.1, SVG Export Plug-In . SVG Version: 6.00 Build 0)  -->
<svg version="1.1" id="Layer_1" xmlns="http://www.w3.org/2000/svg" xmlns:xlink="http://www.w3.org/1999/xlink" x="0px" y="0px"
	 viewBox="0 0 290 185" style="enable-background:new 0 0 290 185;" xml:space="preserve">
<style type="text/css">
	.st0{fill-rule:evenodd;clip-rule:evenodd;fill:#EF4431;}
</style>
<g id="Page-1">
	<g id="Menu---Mobile" transform="translate(-17.000000, -437.000000)">
		<g id="Group-2" transform="translate(17.000000, 437.938420)">
			<path id="Combined-Shape" class="st0" d="M89.22,1.08c93.72,16.66,155.24,37.6,184.55,62.83c24.45,21.05,21.28,40.6-9.5,58.66
				c0.44,3.25,0.49,6.61,0.1,10.02c-1.72,14.91-11.6,27.6-25.6,32.94l-0.46,0.17l0,0c-46.71,17.14-91.06,22.17-133.03,15.08
				c-23.16-3.91-40.97-20.62-47.4-41.65l-36.01-5.48c-13.61-2.07-22.96-14.79-20.89-28.4c1.24-8.17,6.45-15.19,13.91-18.74
				c11.39-5.44,18.59-11.65,21.59-18.66c2.07-4.82,2.68-9.89,1.84-15.18l-0.09-0.55C33.94,28.19,49.89,5.34,73.81,1.08
				C78.91,0.18,84.12,0.17,89.22,1.08z"/>
		</g>
	</g>
</g>
</svg>
