<svg xmlns:xlink="http://www.w3.org/1999/xlink" xmlns="http://www.w3.org/2000/svg" viewBox="0 0 200 200" width="200" height="200" preserveAspectRatio="xMidYMid slice" style="width: 100%; height: 100%; transform: translate3d(0px, 0px, 0px);"><defs><clipPath id="__lottie_element_25"><rect width="200" height="200" x="0" y="0"></rect></clipPath><clipPath id="__lottie_element_27"><path d="M0,0 L662,0 L662,680 L0,680z"></path></clipPath><mask id="__lottie_element_34" mask-type="alpha"><g transform="matrix(-1.059999942779541,-0.000008801881449471693,0.000008801881449471693,-1.059999942779541,463.6959228515625,478.6283874511719)" opacity="1" style="display: block;"><g opacity="1" transform="matrix(1,0,0,1,68.06800079345703,193.02200317382812)"><path fill="rgb(248,182,22)" fill-opacity="1" d=" M65.58699798583984,12.086999893188477 C64.49800109863281,18.023000717163086 62.867000579833984,23.86400032043457 60.66999816894531,29.5049991607666 C58.479000091552734,35.14899826049805 55.81800079345703,40.619998931884766 52.803001403808594,45.90399932861328 C47.551998138427734,54.99599838256836 41.229000091552734,63.49700164794922 34.27000045776367,71.47200012207031 C34.27000045776367,71.47200012207031 -67.81800079345703,-33.07500076293945 -67.81800079345703,-33.07500076293945 C-64.06500244140625,-37.180999755859375 -60.17499923706055,-41.185001373291016 -56.03300094604492,-44.819000244140625 C-51.7130012512207,-48.67499923706055 -47.20000076293945,-52.31399917602539 -42.45000076293945,-55.5 C-32.9739990234375,-61.90299987792969 -22.610000610351562,-66.80899810791016 -11.626999855041504,-69.10800170898438 C-0.6520000100135803,-71.47200012207031 10.855999946594238,-70.98300170898438 22.21299934387207,-68.44999694824219 C33.433998107910156,-65.95999908447266 44.48099899291992,-61.680999755859375 55.691001892089844,-57.25699996948242 C59.486000061035156,-46.257999420166016 63.08000183105469,-35.305999755859375 65.1760025024414,-24.124000549316406 C67.38200378417969,-12.079999923706055 67.81800079345703,0.20100000500679016 65.58699798583984,12.086999893188477z"></path></g></g></mask><mask id="__lottie_element_41" mask-type="alpha"><g transform="matrix(-1.0499999523162842,-0.000008718844583199825,0.000008718844583199825,-1.0499999523162842,466.1376037597656,473.9176940917969)" opacity="1" style="display: block;"><g opacity="1" transform="matrix(1,0,0,1,185.0290069580078,70.0719985961914)"><path fill="rgb(248,182,22)" fill-opacity="1" d=" M58.03499984741211,46.50400161743164 C53.41400146484375,50.020999908447266 48.606998443603516,53.28799819946289 43.5989990234375,56.11800003051758 C33.60499954223633,61.814998626708984 22.836999893188477,66.04499816894531 11.602999687194824,67.89700317382812 C0.37700000405311584,69.82099914550781 -11.220999717712402,69.197998046875 -22.64299964904785,66.75900268554688 C-28.349000930786133,65.48899841308594 -34.02799987792969,63.823001861572266 -39.68000030517578,61.88800048828125 C-45.31999969482422,59.92499923706055 -50.96200180053711,57.757999420166016 -56.62799835205078,55.47700119018555 C-56.888999938964844,55.37300109863281 -57.152000427246094,55.26599884033203 -57.4119987487793,55.1609992980957 C-60.84700012207031,45.145999908447266 -64.09400177001953,35.17900085449219 -66.0770034790039,25.038000106811523 C-68.33200073242188,13.038999557495117 -68.79100036621094,0.7820000052452087 -66.0469970703125,-10.91100025177002 C-64.73100280761719,-16.75 -62.79600143432617,-22.452999114990234 -60.26499938964844,-27.910999298095703 C-57.73500061035156,-33.36899948120117 -54.694000244140625,-38.60900115966797 -51.29199981689453,-43.62900161743164 C-44.729000091552734,-53.13399887084961 -36.89799880981445,-61.821998596191406 -28.389999389648438,-69.8219985961914 C-28.389999389648438,-69.8219985961914 68.79100036621094,37.494998931884766 68.79100036621094,37.494998931884766 C65.33100128173828,40.665000915527344 61.763999938964844,43.72100067138672 58.03499984741211,46.50400161743164z"></path></g></g></mask></defs><g clip-path="url(#__lottie_element_25)" fill="#2960AD"><g clip-path="url(#__lottie_element_27)" transform="matrix(0.6000000238418579,0,0,0.6000000238418579,-98.60000610351562,-104.00001525878906)" opacity="1" style="display: block;" fill="#2960AD"><g mask="url(#__lottie_element_41)" style="display: block;" fill="#2960AD"><g transform="matrix(1,0,0,1,117.43264770507812,369.3135681152344)" opacity="1" fill="#2960AD"><g opacity="1" transform="matrix(-0.9902680516242981,0.13917310535907745,-0.13917310535907745,-0.9902680516242981,150.82400512695312,11.482999801635742)" fill="#2960AD"><path fill="#F8B616" fill-opacity="1" d=" M168.71200561523438,-13.78600025177002 C154.95199584960938,-2.4010000228881836 139.23399353027344,5.415999889373779 121.39900207519531,-1.5670000314712524 C98.0459976196289,-11.901000022888184 86.32099914550781,-27.597999572753906 57.71900177001953,-18.059999465942383 C47.49800109863281,-15.045000076293945 38.38600158691406,-7.574999809265137 29.36400032043457,-2.2039999961853027 C-10.90999984741211,18.915000915527344 -22.67099952697754,-42.99300003051758 -84.94999694824219,-5.8420000076293945 C-121.9219970703125,15.868000030517578 -134.9969940185547,-19.60300064086914 -167.17300415039062,-20.933000564575195 C-181.80599975585938,-21.33799934387207 -194.91700744628906,-14.072999954223633 -207.64199829101562,-7.923999786376953 C-207.64199829101562,-7.923999786376953 -198.3090057373047,5.659999847412109 -198.3090057373047,5.659999847412109 C-185.45700073242188,-6.61899995803833 -170.9499969482422,-17.475000381469727 -152.4600067138672,-10.543999671936035 C-137.2830047607422,-4.781000137329102 -123.64800262451172,7.298999786376953 -106.44000244140625,7.5329999923706055 C-92.16600036621094,8.133000373840332 -78.4209976196289,2.8469998836517334 -66.40299987792969,-4.4720001220703125 C-15.62600040435791,-33.85300064086914 -8.293000221252441,42.992000579833984 58.689998626708984,-6.209000110626221 C89.1240005493164,-26.308000564575195 106.58200073242188,6.769000053405762 136.1790008544922,7.533999919891357 C149.9499969482422,8.244000434875488 162.81100463867188,2.630000114440918 175.3730010986328,-2.2060000896453857 C175.3730010986328,-2.2060000896453857 168.71200561523438,-13.78600025177002 168.71200561523438,-13.78600025177002z"></path></g></g></g><g mask="url(#__lottie_element_34)" style="display: block;" fill="#2960AD"><g transform="matrix(1,0,0,1,316.682373046875,189.2244110107422)" opacity="1" fill="#2960AD"><g opacity="1" transform="matrix(-0.9876883625984192,0.15643446147441864,-0.15643446147441864,-0.9876883625984192,77.35399627685547,97.02799987792969)" fill="#2960AD"><path fill="#F8B616" fill-opacity="1" d=" M197.0780029296875,-13.786999702453613 C183.3179931640625,-2.4019999504089355 167.60000610351562,5.415999889373779 149.76499938964844,-1.5670000314712524 C126.41200256347656,-11.901000022888184 114.68699645996094,-27.599000930786133 86.08499908447266,-18.06100082397461 C75.86399841308594,-15.045999526977539 66.75199890136719,-7.574999809265137 57.72999954223633,-2.2039999961853027 C17.45599937438965,18.915000915527344 5.695000171661377,-42.99300003051758 -56.58399963378906,-5.8420000076293945 C-93.55599975585938,15.868000030517578 -106.63099670410156,-19.60300064086914 -138.8070068359375,-20.933000564575195 C-153.44000244140625,-21.33799934387207 -166.55099487304688,-14.072999954223633 -179.2760009765625,-7.922999858856201 C-179.2760009765625,-7.922999858856201 -169.9429931640625,5.659999847412109 -169.9429931640625,5.659999847412109 C-157.09100341796875,-6.61899995803833 -142.58399963378906,-17.475000381469727 -124.09400177001953,-10.543999671936035 C-108.91699981689453,-4.781000137329102 -95.28199768066406,7.297999858856201 -78.0739974975586,7.5329999923706055 C-63.79999923706055,8.131999969482422 -50.05500030517578,2.8480000495910645 -38.0369987487793,-4.4720001220703125 C12.739999771118164,-33.85300064086914 20.072999954223633,42.992000579833984 87.05599975585938,-6.209000110626221 C117.48999786376953,-26.308000564575195 134.947998046875,6.76800012588501 164.5449981689453,7.5329999923706055 C178.3159942626953,8.243000030517578 191.177001953125,2.630000114440918 203.73899841308594,-2.2060000896453857 C203.73899841308594,-2.2060000896453857 197.0780029296875,-13.786999702453613 197.0780029296875,-13.786999702453613z"></path></g></g></g><g transform="matrix(-1,-0.000008303662070829887,0.000008303662070829887,-1,491.2686767578125,496.8393249511719)" opacity="1" style="display: block;" fill="#2960AD"><g opacity="1" transform="matrix(1,0,0,1,159.98699951171875,160.6649932861328)" fill="#2960AD"><path fill="#F8B616" fill-opacity="1" d=" M143.36099243164062,-17.329999923706055 C132.74899291992188,-9.960000038146973 121.8489990234375,-2.9110000133514404 110.05599975585938,2.617000102996826 C104.19400024414062,5.422999858856201 98.14399719238281,7.88700008392334 91.91200256347656,9.838000297546387 C85.69000244140625,11.807000160217285 79.302001953125,13.329999923706055 72.81500244140625,14.178000450134277 C71.18800354003906,14.352999687194824 69.56999969482422,14.581999778747559 67.94100189208984,14.704999923706055 C66.30899810791016,14.802000045776367 64.68399810791016,14.965999603271484 63.051998138427734,15.003000259399414 C59.792999267578125,15.138999938964844 56.52799987792969,15.16100025177002 53.279998779296875,14.979999542236328 C46.779998779296875,14.663000106811523 40.345001220703125,13.743000030517578 34.05500030517578,12.388999938964844 C21.459999084472656,9.699000358581543 9.458000183105469,5.395999908447266 -2.312999963760376,1.13100004196167 C-14.092000007629395,-3.118000030517578 -25.766000747680664,-7.339000225067139 -37.70500183105469,-9.687000274658203 C-43.667999267578125,-10.829999923706055 -49.66699981689453,-11.517999649047852 -55.64400100708008,-11.588000297546387 C-61.62099838256836,-11.708999633789062 -67.55899810791016,-10.980999946594238 -73.34600067138672,-9.696000099182129 C-79.12699890136719,-8.380000114440918 -84.79000091552734,-6.498000144958496 -90.18599700927734,-3.9619998931884766 C-95.58799743652344,-1.4479999542236328 -100.78800201416016,1.5449999570846558 -105.75900268554688,4.915999889373779 C-115.66300201416016,11.736000061035156 -124.70099639892578,19.923999786376953 -132.94200134277344,28.87700080871582 C-132.94200134277344,28.87700080871582 -143.36099243164062,17.93400001525879 -143.36099243164062,17.93400001525879 C-133.39999389648438,9.711000442504883 -123.08399963378906,1.8109999895095825 -111.73799896240234,-4.660999774932861 C-100.4540023803711,-11.15999984741211 -88.09700012207031,-16.239999771118164 -75.08300018310547,-18.516000747680664 C-68.58899688720703,-19.638999938964844 -61.97700119018555,-20.058000564575195 -55.43600082397461,-19.785999298095703 C-48.891998291015625,-19.514999389648438 -42.42900085449219,-18.56599998474121 -36.13399887084961,-17.163000106811523 C-23.542999267578125,-14.303999900817871 -11.62600040435791,-9.859000205993652 0.11500000208616257,-5.571000099182129 C5.989999771118164,-3.421999931335449 11.848999977111816,-1.3480000495910645 17.733999252319336,0.5070000290870667 C23.624000549316406,2.3440001010894775 29.554000854492188,3.928999900817871 35.529998779296875,5.0970001220703125 C47.48699951171875,7.296000003814697 59.67499923706055,7.808000087738037 71.46299743652344,5.570000171661377 C77.3479995727539,4.485000133514404 83.13400268554688,2.86299991607666 88.72899627685547,0.6959999799728394 C94.31900024414062,-1.4859999418258667 99.73300170898438,-4.131999969482422 104.9749984741211,-7.105000019073486 C115.41000366210938,-13.156999588012695 125.09200286865234,-20.5939998626709 134.0050048828125,-28.87700080871582 C134.0050048828125,-28.87700080871582 143.36099243164062,-17.329999923706055 143.36099243164062,-17.329999923706055z"></path></g><g opacity="1" transform="matrix(1,0,0,1,160.33200073242188,157.1179962158203)" fill="#2960AD"><path fill="#F8B616" fill-opacity="1" d=" M159.1820068359375,-4.3420000076293945 C159.1820068359375,-4.3420000076293945 22.065000534057617,-155.76100158691406 22.065000534057617,-155.76100158691406 C21.27400016784668,-156.63299560546875 20.01300048828125,-156.86900329589844 18.996999740600586,-156.33700561523438 C17.989999771118164,-155.8090057373047 17.489999771118164,-154.6959991455078 17.753999710083008,-153.5679931640625 C17.753999710083008,-153.5679931640625 20.95199966430664,-139.88900756835938 20.95199966430664,-139.88900756835938 C21.041000366210938,-139.50900268554688 21.229000091552734,-139.15899658203125 21.474000930786133,-138.85400390625 C13.133999824523926,-129.4550018310547 5.185999870300293,-119.60800170898438 -1.399999976158142,-108.73100280761719 C-8.175999641418457,-97.59100341796875 -13.515000343322754,-85.3010025024414 -15.961000442504883,-72.28500366210938 C-17.174999237060547,-65.79100036621094 -17.68400001525879,-59.16600036621094 -17.474000930786133,-52.60100173950195 C-17.270999908447266,-46.034000396728516 -16.402000427246094,-39.5359992980957 -15.062000274658203,-33.20000076293945 C-13.244999885559082,-24.55699920654297 -10.659000396728516,-16.216999053955078 -7.870999813079834,-8.031000137329102 C-16.177000045776367,-11.309000015258789 -24.69099998474121,-14.465999603271484 -33.645999908447266,-16.834999084472656 C-39.854000091552734,-18.44099998474121 -46.26599884033203,-19.621999740600586 -52.810001373291016,-20.187000274658203 C-59.35100173950195,-20.740999221801758 -66.02100372314453,-20.584999084472656 -72.59600067138672,-19.716999053955078 C-85.80000305175781,-18.04199981689453 -98.4229965209961,-13.454000473022461 -110.05599975585938,-7.574999809265137 C-115.91600036621094,-4.6620001792907715 -121.45700073242188,-1.2929999828338623 -126.947998046875,2.1459999084472656 C-126.947998046875,2.1459999084472656 -131.02499389648438,4.7829999923706055 -131.02499389648438,4.7829999923706055 C-131.02499389648438,4.7829999923706055 -135.00399780273438,7.5289998054504395 -135.00399780273438,7.5289998054504395 C-137.7209930419922,9.303999900817871 -140.23399353027344,11.27400016784668 -142.91400146484375,13.10099983215332 C-142.91400146484375,13.10099983215332 -140.14100646972656,16.197999954223633 -140.14100646972656,16.197999954223633 C-140.14100646972656,16.197999954223633 -142.3350067138672,13.951000213623047 -142.3350067138672,13.951000213623047 C-142.64500427246094,13.63700008392334 -143.0290069580078,13.407999992370605 -143.447998046875,13.28600025177002 C-143.447998046875,13.28600025177002 -156.69400024414062,9.472000122070312 -156.69400024414062,9.472000122070312 C-157.78799438476562,9.156999588012695 -158.9149932861328,9.595999717712402 -159.4929962158203,10.562999725341797 C-160.08200073242188,11.54800033569336 -159.92999267578125,12.769000053405762 -159.11500549316406,13.604000091552734 C-159.11500549316406,13.604000091552734 -19.97800064086914,156.0919952392578 -19.97800064086914,156.0919952392578 C-19.479999542236328,156.6020050048828 -18.829999923706055,156.8679962158203 -18.172000885009766,156.8679962158203 C-17.7549991607666,156.8679962158203 -17.333999633789062,156.76100158691406 -16.947999954223633,156.54200744628906 C-15.965999603271484,155.98699951171875 -15.503000259399414,154.8730010986328 -15.791999816894531,153.7689971923828 C-15.791999816894531,153.7689971923828 -17.926000595092773,145.63099670410156 -17.926000595092773,145.63099670410156 C-10.317000389099121,135.57000732421875 -3.1419999599456787,125.0979995727539 2.5989999771118164,113.73300170898438 C8.515000343322754,102.15399932861328 12.998000144958496,89.65899658203125 14.947999954223633,76.66699981689453 C15.918000221252441,70.17900085449219 16.24799919128418,63.60499954223633 16.027000427246094,57.08000183105469 C15.791000366210938,50.553001403808594 14.968000411987305,44.07699966430664 13.684000015258789,37.742000579833984 C11.732000350952148,28.014999389648438 8.843999862670898,18.617000579833984 5.710999965667725,9.41100025177002 C8.729999542236328,10.588000297546387 11.776000022888184,11.746000289916992 14.869999885559082,12.835000038146973 C20.759000778198242,14.949000358581543 26.780000686645508,16.90399932861328 32.97999954223633,18.44499969482422 C39.17599868774414,20.020999908447266 45.55400085449219,21.114999771118164 52.027000427246094,21.722000122070312 C58.500999450683594,22.30699920654297 65.072998046875,22.312999725341797 71.5989990234375,21.726999282836914 C84.68299865722656,20.565000534057617 97.41500091552734,16.886999130249023 109.40799713134766,11.937000274658203 C115.4469985961914,9.505000114440918 121.23400115966797,6.611000061035156 126.96600341796875,3.622999906539917 C126.96600341796875,3.622999906539917 131.24200439453125,1.3370000123977661 131.24200439453125,1.3370000123977661 C131.24200439453125,1.3370000123977661 135.42799377441406,-1.0740000009536743 135.42799377441406,-1.0740000009536743 C137.85299682617188,-2.384999990463257 140.14999389648438,-3.8459999561309814 142.51699829101562,-5.23799991607666 C142.74899291992188,-5.056000232696533 142.9980010986328,-4.89900016784668 143.27499389648438,-4.803999900817871 C143.27499389648438,-4.803999900817871 156.57400512695312,-0.2680000066757202 156.57400512695312,-0.2680000066757202 C156.8520050048828,-0.17399999499320984 157.13600158691406,-0.12700000405311584 157.41299438476562,-0.12700000405311584 C158.2239990234375,-0.12700000405311584 158.98599243164062,-0.5220000147819519 159.45199584960938,-1.2300000190734863 C160.08299255371094,-2.190000057220459 159.9709930419922,-3.4690001010894775 159.1820068359375,-4.3420000076293945z M6.914000034332275,75.33699798583984 C5.824999809265137,81.27300262451172 4.192999839782715,87.11299896240234 1.996000051498413,92.75399780273438 C-0.19599999487400055,98.39800262451172 -2.8559999465942383,103.87000274658203 -5.870999813079834,109.15499877929688 C-11.121999740600586,118.24600219726562 -17.445999145507812,126.74800109863281 -24.405000686645508,134.72300720214844 C-24.405000686645508,134.72300720214844 -126.49099731445312,30.174999237060547 -126.49099731445312,30.174999237060547 C-122.73899841308594,26.069000244140625 -118.8479995727539,22.06399917602539 -114.70600128173828,18.43000030517578 C-110.38600158691406,14.574999809265137 -105.87300109863281,10.9350004196167 -101.12300109863281,7.749000072479248 C-91.64700317382812,1.3459999561309814 -81.28399658203125,-3.559999942779541 -70.3010025024414,-5.859000205993652 C-59.32600021362305,-8.222000122070312 -47.819000244140625,-7.734000205993652 -36.46099853515625,-5.199999809265137 C-25.239999771118164,-2.7109999656677246 -14.194000244140625,1.569000005722046 -2.9830000400543213,5.993000030517578 C0.8119999766349792,16.992000579833984 4.4070000648498535,27.944000244140625 6.502999782562256,39.125999450683594 C8.708999633789062,51.16999816894531 9.145000457763672,63.45100021362305 6.914000034332275,75.33699798583984z M116.322998046875,-13.196000099182129 C111.7020034790039,-9.678999900817871 106.8949966430664,-6.410999774932861 101.88700103759766,-3.5810000896453857 C91.89299774169922,2.115999937057495 81.125,6.34499979019165 69.89099884033203,8.196999549865723 C58.665000915527344,10.121000289916992 47.06700134277344,9.498000144958496 35.64500045776367,7.059000015258789 C29.93899917602539,5.789000034332275 24.260000228881836,4.123000144958496 18.607999801635742,2.187999963760376 C12.968000411987305,0.22499999403953552 7.324999809265137,-1.9420000314712524 1.659000039100647,-4.2230000495910645 C1.3980000019073486,-4.327000141143799 1.1349999904632568,-4.433000087738037 0.875,-4.538000106811523 C-2.559999942779541,-14.553000450134277 -5.806000232696533,-24.520999908447266 -7.789000034332275,-34.6619987487793 C-10.043999671936035,-46.6609992980957 -10.503000259399414,-58.917999267578125 -7.758999824523926,-70.61100006103516 C-6.442999839782715,-76.44999694824219 -4.508999824523926,-82.15299987792969 -1.9780000448226929,-87.61100006103516 C0.5519999861717224,-93.06900024414062 3.5929999351501465,-98.30899810791016 6.994999885559082,-103.3290023803711 C13.557999610900879,-112.83399963378906 21.388999938964844,-121.52100372314453 29.89699935913086,-129.52099609375 C29.89699935913086,-129.52099609375 127.0780029296875,-22.204999923706055 127.0780029296875,-22.204999923706055 C123.61799621582031,-19.03499984741211 120.052001953125,-15.979000091552734 116.322998046875,-13.196000099182129z"></path></g></g></g></g></svg>