<?xml version="1.0" encoding="utf-8"?>
<!-- Generator: Adobe Illustrator 26.2.1, SVG Export Plug-In . SVG Version: 6.00 Build 0)  -->
<svg version="1.1" id="Layer_1" xmlns="http://www.w3.org/2000/svg" xmlns:xlink="http://www.w3.org/1999/xlink" x="0px" y="0px"
	 viewBox="0 0 200 200" style="enable-background:new 0 0 200 200;" xml:space="preserve">
<style type="text/css">
	.st0{fill:none;}
	.st1{fill:#F8B616;}
</style>
<path class="st0" d="M200,58.5V0H0v135.2c9.3,3.5,18,6.7,28-2.1c0.8-0.8,1.5-1.5,2.3-2.1l5,5.6c-1.8,1.4-3.7,2.6-5.7,3.5
	C17.2,146.2,9.5,142.8,0,139v61h200V62.2c-8.6-3.3-17-5.5-28.1,3.7c-0.3,0.3-0.6,0.5-0.9,0.7l-4.2-4.3c5-3.3,10.6-5.7,16.6-6.4
	C189.2,55.1,194.6,56.6,200,58.5z M39.6,78.7c17.6-2.3,31.1,15.6,47.2,0.9c1.6-1.6,3.1-3,4.6-4.3c0.1,0.6,0.2,1.3,0.4,1.9
	c0.4,2.2,1,4.3,1.5,6.4c-1.5,1.1-3.1,2.1-4.8,2.9c-2.4,1.2-4.6,2.1-6.7,2.7c-0.6-0.2-1.1-0.3-1.7-0.4c-3.7-1-7.5-1.6-11.4-2
	c-2.8-0.2-5.5-0.3-8.3-0.2c-3.5-1.3-7.1-2.7-11.2-3.8C38,80.3,29.4,86.4,22.3,94.4l-5-6.2C24.3,84.1,31.4,79.6,39.6,78.7z
	 M163.4,123c-19.2,1.9-30-18.1-50.1-2.1c-1.2,1-2.4,1.9-3.6,2.7c-0.2-1.3-0.4-2.6-0.7-3.8c-0.2-0.9-0.4-1.8-0.6-2.6
	c5-3.1,10.6-5.4,16.6-6c0.1,0,0.2,0,0.3,0h0c2.1,0.4,4.2,0.7,6.4,0.9c1.4,0.1,2.9,0.2,4.4,0.2h0c6,1.6,11.8,4.5,17.8,5.9
	c11.6,2.6,19.3-5.1,25.9-13.5l6.7,7.3C179.3,116.6,172.2,122,163.4,123z"/>
<rect x="-98.6" y="-104" class="st0" width="397.2" height="408"/>
<g transform="matrix(1,0,0,1,117.43264770507812,369.3135681152344)">
	
		<g transform="matrix(-0.9902680516242981,0.13917310535907745,-0.13917310535907745,-0.9902680516242981,150.82400512695312,11.482999801635742)">
		<path d="M121.2,276.8c1.6-0.8,3.1-1.5,4.6-2.1c30.1-12.3,37.8,18.1,60,6.5c1.6-0.9,3.2-2,4.8-3.1c2-1.3,4-2.6,6-3.7l4.2,6.2
			c-2.1,1.4-4.1,2.7-6.1,3.7c-32.4,17.4-38.3-20.7-66.5-4.5c-0.8,0.5-1.7,1-2.5,1.5c-1.4,0.8-2.8,1.5-4.3,2.1
			c-0.1-0.9-0.2-1.8-0.2-2.7C121.3,279.4,121.2,278.1,121.2,276.8z"/>
		<path d="M93.6,284.4c1.4,0.2,2.9,0.5,4.3,0.8c2.1,0.5,4.2,1.1,6.2,1.7C100.3,286.9,96.9,285.9,93.6,284.4z"/>
	</g>
</g>
<g transform="matrix(1,0,0,1,316.682373046875,189.2244110107422)">
	
		<g transform="matrix(-0.9876883625984192,0.15643446147441864,-0.15643446147441864,-0.9876883625984192,77.35399627685547,97.02799987792969)">
		<path d="M279.1,244.2c-0.5-0.2-1.1-0.5-1.6-0.7c1.3-0.1,2.6-0.2,3.8-0.2c4.3,0.1,7.9,1.4,11.5,3.1c1.8,0.9,3.6,1.9,5.5,3
			c-2.8-0.3-5.5-0.8-8.2-1.5C286.3,246.9,282.6,245.7,279.1,244.2z"/>
		<path d="M189.4,256.7l-3.5-4.9c2.2-1.3,4.3-2.3,6.4-3.2c31.1-13.5,38.7,17.8,61.2,6c2.5-1.5,5.1-3.3,7.7-5
			c1.4-0.9,2.7-1.7,4.1-2.4c0.2,2.2,0.4,4.4,0.5,6.6c0,0.6,0,1.3,0.1,1.9c-1.5,1-3,1.8-4.5,2.5c-31.5,16-37.6-21.1-65.4-5
			c-0.1,0.1-0.2,0.1-0.3,0.2C193.7,254.6,191.6,255.7,189.4,256.7z"/>
	</g>
</g>
<g transform="matrix(-1,-0.000008303662070829887,0.000008303662070829887,-1,491.2686767578125,496.8393249511719)">
	<g transform="matrix(1,0,0,1,159.98699951171875,160.6649932861328)">
		<path d="M317.1,228.1c-6.4,4.4-12.9,8.7-20,12c-3.5,1.7-7.1,3.2-10.9,4.3c-3.7,1.2-7.6,2.1-11.5,2.6c-1,0.1-1.9,0.2-2.9,0.3
			c-1,0.1-2,0.2-2.9,0.2c-2,0.1-3.9,0.1-5.9,0c-3.9-0.2-7.8-0.7-11.5-1.6c-7.6-1.6-14.8-4.2-21.8-6.8c-7.1-2.5-14.1-5.1-21.2-6.5
			c-3.6-0.7-7.2-1.1-10.8-1.1c-3.6-0.1-7.1,0.4-10.6,1.1c-3.5,0.8-6.9,1.9-10.1,3.4c-3.2,1.5-6.4,3.3-9.3,5.3
			c-5.9,4.1-11.4,9-16.3,14.4l-6.3-6.6c6-4.9,12.2-9.7,19-13.6c6.8-3.9,14.2-6.9,22-8.3c3.9-0.7,7.9-0.9,11.8-0.8
			c3.9,0.2,7.8,0.7,11.6,1.6c7.6,1.7,14.7,4.4,21.7,7c3.5,1.3,7,2.5,10.6,3.6c3.5,1.1,7.1,2.1,10.7,2.8c7.2,1.3,14.5,1.6,21.6,0.3
			c3.5-0.7,7-1.6,10.4-2.9c3.4-1.3,6.6-2.9,9.7-4.7c6.3-3.6,12.1-8.1,17.4-13.1L317.1,228.1z"/>
	</g>
	<g transform="matrix(1,0,0,1,160.33200073242188,157.1179962158203)">
		<path d="M135.5,248l24.4,25l4.2,4.3l54.8,56.2c0.3,0.3,0.7,0.5,1.1,0.5c0.2,0,0.5-0.1,0.7-0.2c0.6-0.3,0.9-1,0.7-1.7l-1.3-4.9
			c4.6-6,8.9-12.3,12.3-19.1c3.5-6.9,6.2-14.5,7.4-22.2c0.6-3.9,0.8-7.8,0.6-11.8c-0.1-3.3-0.5-6.5-1-9.7c-0.1-0.6-0.2-1.3-0.4-1.9
			c-0.4-2.2-1-4.3-1.5-6.4c-1-3.6-2.1-7.1-3.3-10.6c1.8,0.7,3.6,1.4,5.5,2.1c3,1.1,6.1,2.1,9.2,2.9c0.6,0.2,1.1,0.3,1.7,0.4
			c3.7,0.9,7.5,1.6,11.4,2c2.8,0.2,5.5,0.3,8.3,0.2c1.2,0,2.3-0.1,3.4-0.2c7.8-0.7,15.5-2.9,22.7-5.9c3.6-1.5,7.1-3.2,10.5-5
			l2.6-1.4l2.5-1.4c1.5-0.8,2.8-1.7,4.3-2.5c0.1,0.1,0.3,0.2,0.5,0.3l8,2.7c0.2,0,0.3,0.1,0.5,0.1c0.5,0,0.9-0.2,1.2-0.7
			c0.4-0.6,0.3-1.3-0.2-1.9l-25.8-28.5l-5-5.6l-51.4-56.8c-0.5-0.5-1.2-0.7-1.8-0.3c-0.6,0.3-0.9,1-0.7,1.7l1.9,8.2
			c0,0.2,0.2,0.4,0.3,0.6c-5,5.6-9.8,11.6-13.7,18.1c-4.1,6.7-7.3,14.1-8.7,21.9c-0.7,3.9-1,7.9-0.9,11.8c0.1,2.6,0.4,5.2,0.7,7.8
			c0.2,1.3,0.4,2.6,0.7,3.8c0.2,0.9,0.4,1.8,0.6,2.6c1,4.2,2.3,8.4,3.7,12.5c-5-2-10.1-3.9-15.5-5.3c-1.7-0.4-3.4-0.8-5.1-1.1h0
			c-2.1-0.4-4.2-0.7-6.4-0.9c-1.4-0.1-2.9-0.2-4.4-0.2h0c-2.5,0-5,0.2-7.5,0.5c-7.9,1-15.5,3.8-22.5,7.3c-3.5,1.8-6.8,3.8-10.1,5.8
			l-2.4,1.6l-2.4,1.6c-1.6,1.1-3.1,2.3-4.7,3.4l1.7,1.9l-1.3-1.4c-0.2-0.2-0.4-0.3-0.7-0.4l-7.9-2.3c-0.7-0.2-1.3,0.1-1.7,0.7
			C134.9,246.8,135,247.5,135.5,248z M234.9,263.4c0.3,1.4,0.5,2.8,0.6,4.2c0.7,5.8,0.7,11.7-0.4,17.5c-0.7,3.6-1.6,7.1-2.9,10.5
			c-1.3,3.4-2.9,6.7-4.7,9.8c-3.2,5.5-6.9,10.6-11.1,15.3l-46.5-47.6l-4.2-4.2L155.1,258c2.2-2.5,4.6-4.9,7.1-7
			c2.6-2.3,5.3-4.5,8.1-6.4c5.7-3.9,11.9-6.8,18.5-8.2c6.6-1.4,13.5-1.1,20.3,0.4c6.7,1.5,13.4,4.1,20.1,6.7
			c1.8,5.2,3.5,10.4,4.8,15.7C234.3,260.5,234.6,261.9,234.9,263.4z M226.3,219.1c-0.3-1.9-0.6-3.8-0.8-5.7
			c-0.5-5.3-0.4-10.7,0.8-15.9c0.8-3.5,1.9-6.9,3.5-10.2c1.5-3.3,3.3-6.4,5.4-9.4c3.9-5.7,8.6-10.9,13.7-15.7l41.3,45.6l5,5.5
			l12,13.3c-2.1,1.9-4.2,3.7-6.4,5.4c-2.8,2.1-5.7,4.1-8.7,5.8c-6,3.4-12.5,6-19.2,7.1c-6.7,1.2-13.7,0.8-20.5-0.7
			c-3.4-0.8-6.8-1.8-10.2-2.9c-3.4-1.2-6.8-2.5-10.2-3.8c-0.2-0.1-0.3-0.1-0.5-0.2c-2-5.7-3.8-11.4-5-17.2
			C226.4,219.6,226.3,219.4,226.3,219.1z"/>
	</g>
</g>
</svg>
