<?xml version="1.0" encoding="utf-8"?>
<!-- Generator: Adobe Illustrator 26.2.1, SVG Export Plug-In . SVG Version: 6.00 Build 0)  -->
<svg version="1.1" id="index-snail-svg" xmlns="http://www.w3.org/2000/svg" xmlns:xlink="http://www.w3.org/1999/xlink" x="0px"
	 y="0px" viewBox="0 0 47 34" style="enable-background:new 0 0 47 34;" xml:space="preserve">
<style type="text/css">
	.st0{fill-rule:evenodd;clip-rule:evenodd;fill:#FFC500;}
</style>
<symbol  id="svg-snail" viewBox="-23.46 -16.99 46.92 33.98">
	<path class="st0" d="M23.32-16.2c-0.11-0.14-0.26-0.22-0.43-0.24c-0.17-0.02-0.34,0.03-0.48,0.14c-0.43,0.33-0.83,0.7-1.19,1.1
		c-0.37,0.42-0.68,0.89-0.9,1.41c-0.22,0.52-0.34,1.07-0.37,1.63c-0.02,0.52,0,1.05,0.05,1.57c0.06,0.48,0.08,0.97,0.06,1.45
		c-0.01,0.45-0.12,0.89-0.32,1.29c-0.21,0.4-0.5,0.76-0.85,1.05c-0.23,0.19-0.47,0.37-0.72,0.52c-0.1-0.06-0.2-0.12-0.31-0.18l0,0
		c-0.03-0.02-0.06-0.03-0.09-0.05c-0.18-0.09-0.37-0.16-0.57-0.22l-0.28-0.08c-0.07-0.02-0.15-0.03-0.22-0.04
		c-0.01,0-0.03,0-0.04-0.01c-0.01,0-0.02,0-0.04-0.01c-0.08-0.02-0.17-0.03-0.25-0.03c0.37-0.35,0.67-0.77,0.9-1.22
		c0.24-0.5,0.38-1.03,0.41-1.59c0.03-0.52,0.02-1.04-0.02-1.56c-0.04-0.48-0.04-0.97,0-1.45c0.04-0.45,0.17-0.89,0.37-1.3
		c0.21-0.4,0.48-0.76,0.81-1.07c0.34-0.32,0.71-0.6,1.11-0.84h0.02c0.02-0.01,0.04-0.03,0.06-0.04c0.16-0.13,0.24-0.34,0.21-0.54
		c-0.03-0.2-0.17-0.38-0.36-0.45c-0.19-0.07-0.41-0.04-0.57,0.09c-0.42,0.33-0.82,0.7-1.18,1.1c-0.37,0.41-0.67,0.88-0.89,1.39
		c-0.21,0.51-0.33,1.06-0.36,1.61c-0.02,0.52,0,1.04,0.05,1.56c0.09,0.99,0.14,1.97-0.28,2.76c-0.22,0.4-0.5,0.75-0.85,1.04
		c-0.21,0.17-0.43,0.33-0.66,0.46c-0.41,0.01-0.82,0.06-1.22,0.14c-0.75,0.16-1.46,0.48-2.08,0.95c-0.12,0.08-0.22,0.17-0.33,0.25
		l0,0l-0.09,0.07c-0.15,0.11-0.29,0.24-0.43,0.37c-0.26,0.25-0.51,0.51-0.74,0.79l-0.03,0.03v0.03L7.77-0.65
		C7.56-0.33,7.35-0.01,7.14,0.31l0,0c-0.11,0.17-0.22,0.33-0.33,0.5c-0.09-1.78-0.5-3.53-1.2-5.17C4.82-6.22,3.67-7.91,2.23-9.32
		c-5.95-5.88-15.49-5.77-21.32,0.23c-2.74,2.86-4.3,6.66-4.37,10.64c-0.03,1.98,0.34,3.95,1.06,5.79c0.73,1.85,1.82,3.54,3.19,4.97
		c0.18,0.19,0.37,0.37,0.57,0.55l-2.75,1.62l-0.04,0.02l-0.05,0.04c-0.23,0.21-0.37,0.49-0.4,0.8c-0.04,0.35,0.08,0.7,0.31,0.96
		c0.23,0.26,0.57,0.41,0.91,0.41h0.38l2,0.02l3.99,0.04l3.73,0.03c1.42,0.22,2.86,0.23,4.29,0.03c1.32,0,2.65,0.01,3.98,0.02h0
		c1.33,0.01,2.65,0.02,3.98,0.02h2.02l0.54-0.02c0.11,0,0.23-0.02,0.34-0.03l0,0c0.07-0.01,0.13-0.02,0.19-0.02
		c0.36-0.04,0.71-0.11,1.07-0.19c0.71-0.18,1.4-0.44,2.04-0.78c0.65-0.35,1.24-0.79,1.77-1.31c0.52-0.51,0.98-1.09,1.36-1.72
		c0.19-0.31,0.36-0.64,0.51-0.97l0.41-0.96l1.62-3.66c0.54-1.13,1.27-2.15,2.16-3.02c0.45-0.44,0.92-0.84,1.43-1.2
		c0.25-0.18,0.52-0.35,0.79-0.52c0.32-0.19,0.62-0.41,0.91-0.65c0.6-0.5,1.08-1.11,1.44-1.8c0.18-0.36,0.31-0.75,0.38-1.14
		c0.07-0.4,0.07-0.82,0.02-1.23c-0.1-0.77-0.37-1.52-0.79-2.18c-0.2-0.33-0.44-0.63-0.7-0.92c-0.09-0.09-0.18-0.18-0.28-0.27
		c0.18-0.14,0.37-0.29,0.54-0.45c0.41-0.37,0.74-0.81,1-1.3c0.25-0.5,0.39-1.04,0.43-1.6c0.03-0.52,0.03-1.04,0-1.56
		c-0.03-0.48-0.03-0.95,0-1.43c0.04-0.44,0.17-0.88,0.37-1.27c0.2-0.41,0.47-0.78,0.8-1.1c0.34-0.31,0.71-0.59,1.1-0.83h0.02
		l0.06-0.04C23.5-15.52,23.54-15.93,23.32-16.2z M-18.3,15.54l-1.98,0.02h-0.4c-0.03,0-0.05-0.01-0.07-0.04
		c-0.03-0.04-0.03-0.1,0-0.14l2.91-1.83c0.93,0.77,1.95,1.42,3.03,1.94L-18.3,15.54z M-8.56,15.22c-7.58,0.09-13.8-6.02-13.9-13.67
		c-0.06-3.74,1.43-7.34,4.1-9.93c2.6-2.57,6.12-3.99,9.76-3.95c3.64,0.04,7.12,1.55,9.66,4.19C2.3-6.85,3.28-5.33,3.94-3.66
		c2.03,5.09,0.85,10.91-2.98,14.8c-2.52,2.55-5.93,4.02-9.5,4.09L-8.56,15.22L-8.56,15.22z M19.19-2.18
		c0.16,1.05-0.44,2.08-1.34,2.83c-0.23,0.19-0.47,0.36-0.72,0.51c-0.3,0.18-0.6,0.37-0.89,0.57c-0.58,0.41-1.13,0.86-1.63,1.35
		c-1.04,0.99-1.88,2.17-2.49,3.48l-1.62,3.71l-0.4,0.91C9.99,11.47,9.85,11.74,9.69,12c-0.31,0.52-0.68,1-1.11,1.43
		c-0.43,0.42-0.91,0.78-1.43,1.07c-0.53,0.28-1.09,0.5-1.68,0.65c-0.3,0.07-0.6,0.12-0.9,0.16c-0.05,0.01-0.09,0.01-0.14,0.02l0,0
		c-0.11,0.01-0.21,0.02-0.32,0.03l-0.46,0.02h-5.3c1.47-0.73,2.82-1.69,3.99-2.86C4.95,9.89,6.53,6.4,6.79,2.69l0.27-0.38
		c0.55-0.77,1.1-1.54,1.65-2.32l2.52-3.55c0.2-0.23,0.41-0.44,0.63-0.65c0.11-0.1,0.22-0.19,0.34-0.29
		c0.08-0.06,0.17-0.13,0.26-0.19v0c0.04-0.03,0.09-0.06,0.13-0.09c0.47-0.34,1-0.57,1.57-0.68c0.59-0.1,1.2-0.12,1.8-0.06
		c0.15,0.01,0.29,0.03,0.44,0.06c0.06,0,0.11,0.02,0.17,0.03l0.02,0.01l0.19,0.06c0.12,0.04,0.25,0.09,0.36,0.15
		c0.05,0.03,0.09,0.06,0.14,0.08c0.07,0.04,0.14,0.08,0.2,0.13c0.46,0.33,0.85,0.75,1.13,1.23C18.93-3.29,19.12-2.75,19.19-2.18
		L19.19-2.18z M-12.16-1.56c-1.71-0.06-3.23,1.08-3.67,2.74c-0.45,1.66,0.29,3.41,1.79,4.24c1.5,0.82,3.36,0.5,4.5-0.78
		c0.65-0.72,1-1.67,0.96-2.64C-8.61,1.05-9.01,0.15-9.69-0.5C-10.35-1.15-11.23-1.53-12.16-1.56z M-9.7,1.99
		c-0.03,0.64-0.32,1.25-0.81,1.67c-0.94,0.81-2.33,0.77-3.23-0.08c-0.92-0.89-0.98-2.35-0.14-3.31c0.44-0.51,1.07-0.81,1.73-0.83
		s1.31,0.24,1.78,0.71C-9.89,0.65-9.66,1.31-9.7,1.99L-9.7,1.99z M-14.46-7.14c2.31-1.02,4.92-1.07,7.27-0.13
		c3.64,1.47,6.02,5.05,5.98,9.01C-1.23,3.01-1.5,4.27-2.01,5.45c-0.51,1.16-1.23,2.21-2.14,3.09c-1.81,1.76-4.24,2.71-6.75,2.65
		c-1.23-0.03-2.43-0.3-3.56-0.8c-1.11-0.49-2.12-1.2-2.97-2.08c-0.83-0.88-1.49-1.91-1.95-3.04c-0.47-1.12-0.72-2.32-0.75-3.54
		c-0.03-1.22,0.18-2.44,0.62-3.58C-18.58-4.22-16.77-6.12-14.46-7.14z M-5.32,7.36c1.42-1.52,2.21-3.54,2.18-5.63
		C-3.18-1.46-5.09-4.32-8-5.57c-2.91-1.25-6.28-0.64-8.58,1.55c-1.57,1.49-2.49,3.56-2.55,5.74c-0.02,1.09,0.18,2.18,0.58,3.19
		c0.42,1.01,1.05,1.92,1.83,2.67c2.35,2.32,5.87,2.94,8.86,1.59C-6.9,8.73-6.04,8.12-5.32,7.36z"/>
</symbol>
<g>
	<defs>
		<rect id="SVGID_1_" width="47" height="34"/>
	</defs>
	<clipPath id="SVGID_00000170246739088035959590000006661369176491304125_">
		<use xlink:href="#SVGID_1_"  style="overflow:visible;"/>
	</clipPath>
	<g style="clip-path:url(#SVGID_00000170246739088035959590000006661369176491304125_);">
		
			<use xlink:href="#svg-snail"  width="46.92" height="33.98" x="-23.46" y="-16.99" transform="matrix(1 0 0 1 23.4352 16.9547)" style="overflow:visible;"/>
	</g>
</g>
</svg>
