<svg xmlns:xlink="http://www.w3.org/1999/xlink" xmlns="http://www.w3.org/2000/svg" viewBox="0 0 126 126" width="126" height="126" preserveAspectRatio="xMidYMid slice" style="width: 100%; height: 100%; transform: translate3d(0px, 0px, 0px);"><defs><clipPath id="__lottie_element_225"><rect width="126" height="126" x="0" y="0"></rect></clipPath><clipPath id="__lottie_element_227"><path d="M0,0 L662,0 L662,680 L0,680z"></path></clipPath><clipPath id="__lottie_element_240"><path fill="#ffffff" clip-rule="nonzero" d=" M386.468994140625,-93.7030029296875 C386.468994140625,-93.7030029296875 122.52300262451172,-93.7030029296875 122.52300262451172,-93.7030029296875 C122.52300262451172,-93.7030029296875 122.52300262451172,260.0400085449219 122.52300262451172,260.0400085449219 C122.52300262451172,260.0400085449219 386.468994140625,260.0400085449219 386.468994140625,260.0400085449219 C386.468994140625,260.0400085449219 386.468994140625,-93.7030029296875 386.468994140625,-93.7030029296875" fill-opacity="1"></path></clipPath><clipPath id="__lottie_element_246"><path d="M0,0 L662,0 L662,680 L0,680z"></path></clipPath><clipPath id="__lottie_element_259"><path fill="#ffffff" clip-rule="nonzero" d=" M386.468994140625,-93.7030029296875 C386.468994140625,-93.7030029296875 122.52300262451172,-93.7030029296875 122.52300262451172,-93.7030029296875 C122.52300262451172,-93.7030029296875 122.52300262451172,260.0400085449219 122.52300262451172,260.0400085449219 C122.52300262451172,260.0400085449219 386.468994140625,260.0400085449219 386.468994140625,260.0400085449219 C386.468994140625,260.0400085449219 386.468994140625,-93.7030029296875 386.468994140625,-93.7030029296875" fill-opacity="1"></path></clipPath><clipPath id="__lottie_element_265"><path d="M0,0 L662,0 L662,680 L0,680z"></path></clipPath><clipPath id="__lottie_element_278"><path fill="#ffffff" clip-rule="nonzero" d=" M386.468994140625,-93.7030029296875 C386.468994140625,-93.7030029296875 122.52300262451172,-93.7030029296875 122.52300262451172,-93.7030029296875 C122.52300262451172,-93.7030029296875 122.52300262451172,260.0400085449219 122.52300262451172,260.0400085449219 C122.52300262451172,260.0400085449219 386.468994140625,260.0400085449219 386.468994140625,260.0400085449219 C386.468994140625,260.0400085449219 386.468994140625,-93.7030029296875 386.468994140625,-93.7030029296875" fill-opacity="1"></path></clipPath></defs><g clip-path="url(#__lottie_element_225)"><g clip-path="url(#__lottie_element_265)" transform="matrix(0.30000001192092896,0,0,0.30000001192092896,-48.30000305175781,-39.00000762939453)" opacity="1" style="display: block;"><g transform="matrix(1,0,0,1,183.08358764648438,285.2590026855469)" opacity="1" style="display: block;"><g opacity="1" transform="matrix(1,0,0,1,52.095001220703125,168.3179931640625)"><path fill="#2960AD" fill-opacity="1" d=" M7.388000011444092,6.5289998054504395 C7.388000011444092,6.5289998054504395 -23.642000198364258,6.872000217437744 -23.642000198364258,6.872000217437744 C-23.642000198364258,6.872000217437744 -39.15800094604492,7.047999858856201 -39.15800094604492,7.047999858856201 C-39.15800094604492,7.047999858856201 -41.09600067138672,7.070000171661377 -41.09600067138672,7.070000171661377 C-41.09600067138672,7.070000171661377 -42.06700134277344,7.080999851226807 -42.06700134277344,7.080999851226807 C-42.4900016784668,7.080999851226807 -42.85499954223633,6.953000068664551 -42.992000579833984,6.796000003814697 C-43.25600051879883,6.505000114440918 -43.180999755859375,5.98199987411499 -42.86800003051758,5.718999862670898 C-42.86800003051758,5.718999862670898 -17.253000259399414,-10.204000473022461 -17.253000259399414,-10.204000473022461 C-17.253000259399414,-10.204000473022461 -21.200000762939453,-16.761999130249023 -21.200000762939453,-16.761999130249023 C-21.200000762939453,-16.761999130249023 -47.82899856567383,-1.246000051498413 -47.82899856567383,-1.246000051498413 C-47.82899856567383,-1.246000051498413 -48.1510009765625,-1.0579999685287476 -48.1510009765625,-1.0579999685287476 C-48.1510009765625,-1.0579999685287476 -48.49800109863281,-0.7480000257492065 -48.49800109863281,-0.7480000257492065 C-50.24700164794922,0.8149999976158142 -51.388999938964844,3.053999900817871 -51.61399841308594,5.4079999923706055 C-51.845001220703125,7.776000022888184 -51.17100143432617,10.187999725341797 -49.72999954223633,12.088000297546387 C-48.301998138427734,13.991000175476074 -46.14500045776367,15.322999954223633 -43.79100036621094,15.743000030517578 C-43.22800064086914,15.852999687194824 -42.553001403808594,15.89799976348877 -42.06700134277344,15.902000427246094 C-42.06700134277344,15.902000427246094 -41.09600067138672,15.911999702453613 -41.09600067138672,15.911999702453613 C-41.09600067138672,15.911999702453613 -39.15800094604492,15.934000015258789 -39.15800094604492,15.934000015258789 C-39.15800094604492,15.934000015258789 -23.642000198364258,16.111000061035156 -23.642000198364258,16.111000061035156 C-23.642000198364258,16.111000061035156 7.388000011444092,16.452999114990234 7.388000011444092,16.452999114990234 C7.388000011444092,16.452999114990234 51.845001220703125,16.761999130249023 51.845001220703125,16.761999130249023 C51.845001220703125,16.761999130249023 51.845001220703125,6.21999979019165 51.845001220703125,6.21999979019165 C51.845001220703125,6.21999979019165 7.388000011444092,6.5289998054504395 7.388000011444092,6.5289998054504395z"></path></g></g><g clip-path="url(#__lottie_element_278)" transform="matrix(1,0,0,1,179.4685821533203,283.7030029296875)" opacity="1" style="display: block;"><g opacity="1" transform="matrix(1,0,0,1,170.31100463867188,93.9280014038086)"><path fill="#2960AD" fill-opacity="1" d=" M-131.75059509277344,65.41799926757812 C-131.75059509277344,65.41799926757812 -157.92660522460938,81.6880111694336 -157.92660522460938,81.6880111694336 C-157.92660522460938,81.6880111694336 -157.25758361816406,81.19001007080078 -157.25758361816406,81.19001007080078 C-157.77159118652344,81.70401000976562 -157.48458862304688,82.6390151977539 -156.7705841064453,82.69901275634766 C-156.69659423828125,82.70701599121094 -156.72459411621094,82.70201110839844 -156.56358337402344,82.70301055908203 C-156.56358337402344,82.70301055908203 -155.5946044921875,82.6920166015625 -155.5946044921875,82.6920166015625 C-101.12060546875,82.0160140991211 -37.359588623046875,81.62601470947266 17.011409759521484,81.34201049804688 C32.48141098022461,81.60101318359375 49.94443130493164,83.47235870361328 63.930721282958984,75.65396118164062 C75.61619567871094,69.60923767089844 85.72574615478516,61.5826416015625 92.8014144897461,50.86956024169922 C111.75204467773438,24.169660568237305 124.80239868164062,4.465784072875977 157.68519592285156,-6.2012739181518555 C169.85997009277344,-9.91596794128418 181.03318786621094,-20.469724655151367 178.47874450683594,-33.99106216430664 C177.29421997070312,-42.33418655395508 172.97210693359375,-50.786800384521484 165.64190673828125,-55.259342193603516 C154.43572998046875,-60.90067672729492 141.12448120117188,-62.21004867553711 129.85369873046875,-56.3228645324707 C123.36456298828125,-54.722618103027344 102.4506607055664,-33.94381332397461 96.21360778808594,-28.69126319885254 C89.9659194946289,-23.02977180480957 53.5592041015625,7.0349321365356445 47.257301330566406,12.62863540649414 C47.257301330566406,12.62863540649414 42.084022521972656,7.072157382965088 42.084022521972656,7.072157382965088 C42.084022521972656,7.072157382965088 77.98417663574219,-23.482744216918945 77.98417663574219,-23.482744216918945 C85.73921966552734,-31.036823272705078 106.50240325927734,-50.844356536865234 114.52567291259766,-58.60828399658203 C118.91488647460938,-62.140079498291016 123.97478485107422,-65.11524200439453 129.28628540039062,-67.29542541503906 C145.0459747314453,-74.0913314819336 166.0749969482422,-71.10608673095703 178.4638671875,-59.175140380859375 C190.90037536621094,-46.446533203125 195.11868286132812,-23.845855712890625 183.17259216308594,-9.400432586669922 C172.86224365234375,4.184750080108643 155.22506713867188,5.301239013671875 141.843994140625,14.248734474182129 C110.13054656982422,32.611083984375 102.00753021240234,73.08076477050781 65.63233947753906,88.00556182861328 C52.80556106567383,93.75564575195312 38.63339614868164,93.35201263427734 24.768394470214844,92.9120101928711 C1.5183947086334229,92.86701202392578 -21.806604385375977,92.65901184082031 -45.04960632324219,92.50601196289062 C-74.30160522460938,92.11801147460938 -126.7315902709961,92.08201599121094 -155.59359741210938,91.53401184082031 C-164.39059448242188,92.53401184082031 -169.95761108398438,80.74201202392578 -162.99560546875,74.87301635742188 C-162.99560546875,74.87401580810547 -162.6486053466797,74.56401062011719 -162.6486053466797,74.56401062011719 C-162.6486053466797,74.56401062011719 -162.3265838623047,74.37601470947266 -162.3265838623047,74.37601470947266 C-162.3265838623047,74.37601470947266 -135.6975860595703,58.86001205444336 -135.6975860595703,58.86001205444336 C-135.6975860595703,58.86001205444336 -131.75059509277344,65.41799926757812 -131.75059509277344,65.41799926757812z"></path></g></g><g transform="matrix(0.9935891628265381,-0.11305145174264908,0.11305145174264908,0.9935891628265381,482.0727233886719,226.8118896484375)" opacity="1" style="display: block;"><g opacity="1" transform="matrix(1,0,0,1,23.799999237060547,44.06700134277344)"><path fill="#2960AD" fill-opacity="1" d=" M20.759000778198242,-34.95899963378906 C17.67300033569336,-33.051998138427734 14.690999984741211,-30.958999633789062 12.119999885559082,-28.52899932861328 C9.557999610900879,-26.099000930786133 7.38700008392334,-23.343000411987305 5.828999996185303,-20.280000686645508 C4.2789998054504395,-17.21299934387207 3.3310000896453857,-13.843000411987305 2.9820001125335693,-10.272000312805176 C2.627000093460083,-6.695000171661377 2.746000051498413,-2.9560000896453857 2.9660000801086426,0.8949999809265137 C3.177000045776367,4.741000175476074 3.3989999294281006,8.746000289916992 3.1029999256134033,12.875 C2.7860000133514404,16.979999542236328 1.8769999742507935,21.260000228881836 -0.0860000029206276,25.084999084472656 C-1.9919999837875366,28.934999465942383 -4.714000225067139,32.26100158691406 -7.703999996185303,35.137001037597656 C-10.725000381469727,37.999000549316406 -14.055000305175781,40.358001708984375 -17.399999618530273,42.680999755859375 C-19.03499984741211,43.816001892089844 -21.27899932861328,43.4109992980957 -22.413999557495117,41.7760009765625 C-23.549999237060547,40.141998291015625 -23.143999099731445,37.895999908447266 -21.510000228881836,36.76100158691406 C-21.37700080871582,36.66899871826172 -21.239999771118164,36.58700180053711 -21.100000381469727,36.51499938964844 C-21.100000381469727,36.51499938964844 -20.98200035095215,36.45600128173828 -20.98200035095215,36.45600128173828 C-17.700000762939453,34.79399871826172 -14.520000457763672,32.909000396728516 -11.758000373840332,30.608999252319336 C-9.013999938964844,28.304000854492188 -6.675000190734863,25.615999221801758 -5.054999828338623,22.56100082397461 C-3.4049999713897705,19.513999938964844 -2.615999937057495,16.07200050354004 -2.388000011444092,12.479000091552734 C-2.117000102996826,8.880999565124512 -2.4519999027252197,5.138999938964844 -2.759000062942505,1.2710000276565552 C-3.0510001182556152,-2.5940001010894775 -3.384999990463257,-6.605999946594238 -3.1559998989105225,-10.755000114440918 C-2.9049999713897705,-14.894000053405762 -2.0429999828338623,-19.17099952697754 -0.3190000057220459,-23.121000289916992 C1.36899995803833,-27.09000015258789 3.8320000171661377,-30.652999877929688 6.591000080108643,-33.82899856567383 C9.361000061035156,-37.02299880981445 12.550999641418457,-39.6510009765625 15.73799991607666,-42.262001037597656 C17.63800048828125,-43.81700134277344 20.440000534057617,-43.53799819946289 21.9950008392334,-41.638999938964844 C23.551000595092773,-39.73899841308594 23.270999908447266,-36.9379997253418 21.371000289916992,-35.382999420166016 C21.224000930786133,-35.262001037597656 21.070999145507812,-35.152000427246094 20.913999557495117,-35.053001403808594 C20.913999557495117,-35.053001403808594 20.759000778198242,-34.95899963378906 20.759000778198242,-34.95899963378906z"></path></g></g><g transform="matrix(0.9935891628265381,-0.11305145174264908,0.11305145174264908,0.9935891628265381,507.4740295410156,231.61514282226562)" opacity="1" style="display: block;"><g opacity="1" transform="matrix(1,0,0,1,24.08300018310547,44.361000061035156)"><path fill="#2960AD" fill-opacity="1" d=" M20.725000381469727,-34.18600082397461 C17.677000045776367,-32.2760009765625 14.720999717712402,-30.204999923706055 12.196000099182129,-27.80299949645996 C9.659000396728516,-25.415000915527344 7.564000129699707,-22.690000534057617 6.0269999504089355,-19.70400047302246 C4.499000072479248,-16.711999893188477 3.5369999408721924,-13.425000190734863 3.1689999103546143,-9.902999877929688 C2.812999963760376,-6.375 2.9040000438690186,-2.6610000133514404 3.0959999561309814,1.1890000104904175 C3.2839999198913574,5.0329999923706055 3.503999948501587,9.065999984741211 3.1449999809265137,13.229999542236328 C2.819999933242798,17.375 1.8240000009536743,21.68899917602539 -0.17599999904632568,25.538000106811523 C-1.1759999990463257,27.45400047302246 -2.3440001010894775,29.270999908447266 -3.6610000133514404,30.93899917602539 C-4.35099983215332,31.738000869750977 -4.980999946594238,32.61600112915039 -5.730999946594238,33.34400177001953 C-6.4710001945495605,34.08399963378906 -7.188000202178955,34.858001708984375 -7.946000099182129,35.57500076293945 C-11.005999565124512,38.415000915527344 -14.357000350952148,40.749000549316406 -17.739999771118164,43.007999420166016 C-19.392000198364258,44.11199951171875 -21.625999450683594,43.66699981689453 -22.729000091552734,42.01499938964844 C-23.83300018310547,40.36199951171875 -23.38800048828125,38.12799835205078 -21.736000061035156,37.025001525878906 C-21.650999069213867,36.96799850463867 -21.56399917602539,36.91600036621094 -21.47599983215332,36.867000579833984 C-21.47599983215332,36.867000579833984 -21.322999954223633,36.78300094604492 -21.322999954223633,36.78300094604492 C-21.322999954223633,36.78300094604492 -18.906999588012695,35.45600128173828 -18.906999588012695,35.45600128173828 C-18.906999588012695,35.45600128173828 -17.70800018310547,34.77299880981445 -17.70800018310547,34.77299880981445 C-17.70800018310547,34.77299880981445 -16.56999969482422,34.02299880981445 -16.56999969482422,34.02299880981445 C-15.822999954223633,33.512001037597656 -15.02299976348877,33.04600143432617 -14.312000274658203,32.499000549316406 C-14.312000274658203,32.499000549316406 -12.197999954223633,30.826000213623047 -12.197999954223633,30.826000213623047 C-9.50100040435791,28.493000030517578 -7.193999767303467,25.80699920654297 -5.644999980926514,22.76099967956543 C-4.0329999923706055,19.738000869750977 -3.3299999237060547,16.33099937438965 -3.1110000610351562,12.777999877929688 C-2.9030001163482666,9.21500015258789 -3.239000082015991,5.5 -3.568000078201294,1.6299999952316284 C-3.885999917984009,-2.234999895095825 -4.252999782562256,-6.270999908447266 -4.025000095367432,-10.470000267028809 C-3.7929999828338623,-14.657999992370605 -2.941999912261963,-19.017000198364258 -1.1959999799728394,-23.041000366210938 C0.5130000114440918,-27.08799934387207 3.0510001182556152,-30.68199920654297 5.835000038146973,-33.900001525878906 C8.64900016784668,-37.12200164794922 11.866000175476074,-39.77399826049805 15.092000007629395,-42.38100051879883 C17.233999252319336,-44.111000061035156 20.37299919128418,-43.77799987792969 22.104000091552734,-41.63600158691406 C23.833999633789062,-39.49399948120117 23.500999450683594,-36.35499954223633 21.358999252319336,-34.624000549316406 C21.208999633789062,-34.50400161743164 21.055999755859375,-34.393001556396484 20.898000717163086,-34.29199981689453 C20.898000717163086,-34.29199981689453 20.725000381469727,-34.18600082397461 20.725000381469727,-34.18600082397461z"></path><path fill="#2960AD" fill-opacity="1" d=" M20.725000381469727,-34.18600082397461 C17.677000045776367,-32.2760009765625 14.720999717712402,-30.204999923706055 12.196000099182129,-27.80299949645996 C9.659000396728516,-25.415000915527344 7.564000129699707,-22.690000534057617 6.0269999504089355,-19.70400047302246 C4.499000072479248,-16.711999893188477 3.5369999408721924,-13.425000190734863 3.1689999103546143,-9.902999877929688 C2.812999963760376,-6.375 2.9040000438690186,-2.6610000133514404 3.0959999561309814,1.1890000104904175 C3.2839999198913574,5.0329999923706055 3.503999948501587,9.065999984741211 3.1449999809265137,13.229999542236328 C2.819999933242798,17.375 1.8240000009536743,21.68899917602539 -0.17599999904632568,25.538000106811523 C-1.1759999990463257,27.45400047302246 -2.3440001010894775,29.270999908447266 -3.6610000133514404,30.93899917602539 C-4.35099983215332,31.738000869750977 -4.980999946594238,32.61600112915039 -5.730999946594238,33.34400177001953 C-6.4710001945495605,34.08399963378906 -7.188000202178955,34.858001708984375 -7.946000099182129,35.57500076293945 C-11.005999565124512,38.415000915527344 -14.357000350952148,40.749000549316406 -17.739999771118164,43.007999420166016 C-19.392000198364258,44.11199951171875 -21.625999450683594,43.66699981689453 -22.729000091552734,42.01499938964844 C-23.83300018310547,40.36199951171875 -23.38800048828125,38.12799835205078 -21.736000061035156,37.025001525878906 C-21.650999069213867,36.96799850463867 -21.56399917602539,36.91600036621094 -21.47599983215332,36.867000579833984 C-21.47599983215332,36.867000579833984 -21.322999954223633,36.78300094604492 -21.322999954223633,36.78300094604492 C-21.322999954223633,36.78300094604492 -18.906999588012695,35.45600128173828 -18.906999588012695,35.45600128173828 C-18.906999588012695,35.45600128173828 -17.70800018310547,34.77299880981445 -17.70800018310547,34.77299880981445 C-17.70800018310547,34.77299880981445 -16.56999969482422,34.02299880981445 -16.56999969482422,34.02299880981445 C-15.822999954223633,33.512001037597656 -15.02299976348877,33.04600143432617 -14.312000274658203,32.499000549316406 C-14.312000274658203,32.499000549316406 -12.197999954223633,30.826000213623047 -12.197999954223633,30.826000213623047 C-9.50100040435791,28.493000030517578 -7.193999767303467,25.80699920654297 -5.644999980926514,22.76099967956543 C-4.0329999923706055,19.738000869750977 -3.3299999237060547,16.33099937438965 -3.1110000610351562,12.777999877929688 C-2.9030001163482666,9.21500015258789 -3.239000082015991,5.5 -3.568000078201294,1.6299999952316284 C-3.885999917984009,-2.234999895095825 -4.252999782562256,-6.270999908447266 -4.025000095367432,-10.470000267028809 C-3.7929999828338623,-14.657999992370605 -2.941999912261963,-19.017000198364258 -1.1959999799728394,-23.041000366210938 C0.5130000114440918,-27.08799934387207 3.0510001182556152,-30.68199920654297 5.835000038146973,-33.900001525878906 C8.64900016784668,-37.12200164794922 11.866000175476074,-39.77399826049805 15.092000007629395,-42.38100051879883 C17.233999252319336,-44.111000061035156 20.37299919128418,-43.77799987792969 22.104000091552734,-41.63600158691406 C23.833999633789062,-39.49399948120117 23.500999450683594,-36.35499954223633 21.358999252319336,-34.624000549316406 C21.208999633789062,-34.50400161743164 21.055999755859375,-34.393001556396484 20.898000717163086,-34.29199981689453 C20.898000717163086,-34.29199981689453 20.725000381469727,-34.18600082397461 20.725000381469727,-34.18600082397461z"></path></g></g><g transform="matrix(1,0,0,1,170.93258666992188,235.1800079345703)" opacity="1" style="display: block;"><g opacity="1" transform="matrix(1,0,0,1,87.59700012207031,121.95899963378906)"><path fill="#2960AD" fill-opacity="1" d=" M28.475000381469727,-1.065999984741211 C28.746000289916992,6.208000183105469 26.070999145507812,13.699999809265137 20.996999740600586,19.27899932861328 C18.4689998626709,22.069000244140625 15.357000350952148,24.38800048828125 11.866999626159668,25.999000549316406 C8.381999969482422,27.614999771118164 4.519999980926514,28.506999969482422 0.6539999842643738,28.591999053955078 C-3.2119998931884766,28.663999557495117 -7.138999938964844,27.937000274658203 -10.73799991607666,26.429000854492188 C-14.338000297546387,24.92799949645996 -17.621000289916992,22.69499969482422 -20.32200050354004,19.91200065612793 C-25.75200080871582,14.366999626159668 -28.7450008392334,6.541999816894531 -28.429000854492188,-1.065999984741211 C-28.19300079345703,-8.687000274658203 -24.715999603271484,-16.02400016784668 -19.27199935913086,-20.989999771118164 C-13.843999862670898,-25.993000030517578 -6.495999813079834,-28.663000106811523 0.6539999842643738,-28.420000076293945 C4.223999977111816,-28.323999404907227 7.78000020980835,-27.54800033569336 11.029000282287598,-26.108999252319336 C14.276000022888184,-24.67099952697754 17.246999740600586,-22.665000915527344 19.785999298095703,-20.198999404907227 C22.316999435424805,-17.729999542236328 24.458999633789062,-14.817999839782715 25.972000122070312,-11.553999900817871 C27.492000579833984,-8.295999526977539 28.332000732421875,-4.696000099182129 28.475000381469727,-1.065999984741211z M19.781999588012695,-1.065999984741211 C19.915000915527344,-3.5829999446868896 19.545000076293945,-6.123000144958496 18.70800018310547,-8.541999816894531 C17.871999740600586,-10.956999778747559 16.530000686645508,-13.25 14.718999862670898,-15.130000114440918 C11.093999862670898,-18.945999145507812 5.775000095367432,-20.836000442504883 0.6539999842643738,-20.65999984741211 C-1.9220000505447388,-20.533000946044922 -4.429999828338623,-19.913999557495117 -6.704999923706055,-18.833999633789062 C-8.968999862670898,-17.731000900268555 -10.987000465393066,-16.18600082397461 -12.619000434875488,-14.338000297546387 C-15.913000106811523,-10.628999710083008 -17.490999221801758,-5.756999969482422 -17.214000701904297,-1.065999984741211 C-16.937999725341797,3.6389999389648438 -14.878000259399414,8.027999877929688 -11.569999694824219,11.157999992370605 C-8.272000312805176,14.310999870300293 -3.888000011444092,16.062000274658203 0.6539999842643738,16.226999282836914 C5.192999839782715,16.402000427246094 9.843999862670898,14.907999992370605 13.508000373840332,11.789999961853027 C17.172000885009766,8.694999694824219 19.55299949645996,3.9730000495910645 19.781999588012695,-1.065999984741211z"></path></g><g opacity="1" transform="matrix(1,0,0,1,118.09400177001953,118.42900085449219)"><path fill="#2960AD" fill-opacity="1" d=" M-109.91799926757812,-0.8560000061988831 C-109.70999908447266,13.307000160217285 -106.73200225830078,27.375 -101.11699676513672,40.28499984741211 C-95.48899841308594,53.18199920654297 -87.3290023803711,64.93299865722656 -77.23500061035156,74.61799621582031 C-67.14900207519531,84.30999755859375 -55.20000076293945,91.97200012207031 -42.290000915527344,97.02799987792969 C-29.378999710083008,102.08899688720703 -15.543999671936035,104.58100128173828 -1.7599999904632568,104.33200073242188 C5.130000114440918,104.21800231933594 11.993000030517578,103.45500183105469 18.702999114990234,102.0199966430664 C25.413000106811523,100.58599853515625 31.964000701904297,98.48899841308594 38.268001556396484,95.8219985961914 C50.87300109863281,90.46600341796875 62.354000091552734,82.58599853515625 72.0199966430664,72.9229965209961 C76.83899688720703,68.07499694824219 81.18399810791016,62.757999420166016 84.97000122070312,57.07400131225586 C88.76499938964844,51.395999908447266 92.04299926757812,45.37099838256836 94.6760025024414,39.07099914550781 C99.97899627685547,26.47599983215332 102.66799926757812,12.840999603271484 102.81999969482422,-0.8560000061988831 C102.93900299072266,-14.5649995803833 100.3010025024414,-28.25200080871582 95.21199798583984,-41.00600051879883 C90.11399841308594,-53.76100158691406 82.43299865722656,-65.50700378417969 72.83300018310547,-75.45099639892578 C63.2130012512207,-85.37899780273438 51.61800003051758,-93.44200134277344 38.875,-98.99700164794922 C26.134000778198242,-104.56400299072266 12.24899959564209,-107.56700134277344 -1.7619999647140503,-107.81400299072266 C-15.772000312805176,-108.06099700927734 -29.847999572753906,-105.5009994506836 -42.928001403808594,-100.27400207519531 C-56.02299880981445,-95.08399963378906 -68.08300018310547,-87.2040023803711 -78.20600128173828,-77.30000305175781 C-83.26599884033203,-72.3479995727539 -87.8499984741211,-66.89700317382812 -91.86399841308594,-61.04600143432617 C-95.86299896240234,-55.1870002746582 -99.27999877929688,-48.92100143432617 -102.01300048828125,-42.36899948120117 C-107.4990005493164,-29.2549991607666 -110.04100036621094,-15.005999565124512 -109.91799926757812,-0.8560000061988831z M-117.64600372314453,-0.8560000061988831 C-117.55899810791016,-8.435999870300293 -116.74299621582031,-16.003999710083008 -115.19000244140625,-23.413999557495117 C-113.61699676513672,-30.816999435424805 -111.38400268554688,-38.07600021362305 -108.4749984741211,-45.05500030517578 C-102.6969985961914,-59.02399826049805 -94.27100372314453,-71.91699981689453 -83.66600036621094,-82.76000213623047 C-73.0510025024414,-93.58899688720703 -60.29800033569336,-102.35600280761719 -46.30799865722656,-108.40399932861328 C-32.314998626708984,-114.4540023803711 -17.076000213623047,-117.68499755859375 -1.7619999647140503,-117.94200134277344 C13.552000045776367,-118.17900085449219 28.985000610351562,-115.39099884033203 43.316001892089844,-109.68000030517578 C57.65800094604492,-103.99700164794922 70.875,-95.41400146484375 81.99099731445312,-84.60800170898438 C93.125,-73.81500244140625 102.09200286865234,-60.74800109863281 108.23200225830078,-46.41899871826172 C114.4209976196289,-32.10100173950195 117.57499694824219,-16.472000122070312 117.7040023803711,-0.8560000061988831 C117.84500122070312,14.770999908447266 114.74400329589844,30.45199966430664 108.76799774169922,44.92900085449219 C105.77799987792969,52.16600036621094 102.09200286865234,59.12200164794922 97.72799682617188,65.625 C93.35600280761719,72.12200164794922 88.3499984741211,78.18699645996094 82.80699920654297,83.71099853515625 C71.73699951171875,94.78199768066406 58.404998779296875,103.5479965209961 43.92399978637695,109.43099975585938 C29.450000762939453,115.35199737548828 13.774999618530273,118.17900085449219 -1.7599999904632568,118 C-17.302000045776367,117.74199676513672 -32.78200149536133,114.44200134277344 -46.94300079345703,108.22599792480469 C-61.11800003051758,102.04299926757812 -73.98200225830078,93.05899810791016 -84.63300323486328,82.01699829101562 C-95.27300262451172,70.96600341796875 -103.76000213623047,57.90299987792969 -109.37100219726562,43.715999603271484 C-115.03299713134766,29.554000854492188 -117.84400177001953,14.305999755859375 -117.64600372314453,-0.8560000061988831z"></path></g><g opacity="1" transform="matrix(1,0,0,1,99.72699737548828,118.08300018310547)"><path fill="#2960AD" fill-opacity="1" d=" M-73.33799743652344,0.8560000061988831 C-73.7979965209961,-17.91200065612793 -66.4749984741211,-36.887001037597656 -53.29999923706055,-50.74300003051758 C-46.744998931884766,-57.689998626708984 -38.78200149536133,-63.387001037597656 -29.957000732421875,-67.3489990234375 C-21.141000747680664,-71.33799743652344 -11.451000213623047,-73.49400329589844 -1.7020000219345093,-73.75 C8.041000366210938,-73.93099975585938 17.924999237060547,-72.24800109863281 27.054000854492188,-68.55500030517578 C36.185001373291016,-64.89199829101562 44.617000579833984,-59.41299819946289 51.590999603271484,-52.4370002746582 C65.6989974975586,-38.62900161743164 73.7979965209961,-18.840999603271484 73.51200103759766,0.8560000061988831 C73.38500213623047,10.680000305175781 71.375,20.518999099731445 67.41400146484375,29.48900032043457 C63.49399948120117,38.470001220703125 57.814998626708984,46.637001037597656 50.7760009765625,53.33300018310547 C43.75400161743164,60.04399871826172 35.43899917602539,65.33899688720703 26.445999145507812,68.8030014038086 C17.461000442504883,72.28700256347656 7.821000099182129,73.93099975585938 -1.7020000219345093,73.69200134277344 C-11.223999977111816,73.43699645996094 -20.67300033569336,71.3499984741211 -29.319000244140625,67.5270004272461 C-37.959999084472656,63.698001861572266 -45.8129997253418,58.21900177001953 -52.33100128173828,51.48500061035156 C-58.840999603271484,44.73699951171875 -63.97999954223633,36.74599838256836 -67.53900146484375,28.12700080871582 C-69.33699798583984,23.820999145507812 -70.7229995727539,19.34600067138672 -71.73200225830078,14.781999588012695 C-72.71900177001953,10.213000297546387 -73.25499725341797,5.539999961853027 -73.33799743652344,0.8560000061988831z M-65.61000061035156,0.8560000061988831 C-65.73400115966797,9.21500015258789 -64.33499908447266,17.673999786376953 -61.07699966430664,25.440000534057617 C-59.45500183105469,29.319000244140625 -57.41299819946289,33.020999908447266 -55.025001525878906,36.4739990234375 C-52.62200164794922,39.91899871826172 -49.8849983215332,43.12099838256836 -46.87099838256836,46.025001525878906 C-34.84400177001953,57.72999954223633 -18.138999938964844,64.12100219726562 -1.7020000219345093,63.56399917602539 C6.517000198364258,63.319000244140625 14.612000465393066,61.459999084472656 22.0049991607666,58.119998931884766 C29.39900016784668,54.78499984741211 36.09400177001953,50.00899887084961 41.61899948120117,44.176998138427734 C47.12300109863281,38.327999114990234 51.51499938964844,31.482999801635742 54.39500045776367,24.07699966430664 C57.255001068115234,16.670000076293945 58.749000549316406,8.77299976348877 58.62799835205078,0.8560000061988831 C58.479000091552734,-7.050000190734863 56.93299865722656,-14.894000053405762 53.858001708984375,-22.14299964904785 C52.334999084472656,-25.768999099731445 50.43299865722656,-29.229999542236328 48.249000549316406,-32.50199890136719 C46.07500076293945,-35.78099822998047 43.57699966430664,-38.849998474121094 40.803001403808594,-41.64899826049805 C35.233001708984375,-47.21699905395508 28.652999877929688,-51.810001373291016 21.39699935913086,-54.94599914550781 C14.14799976348877,-58.07500076293945 6.295000076293945,-59.89500045776367 -1.7020000219345093,-60.082000732421875 C-9.692999839782715,-60.332000732421875 -17.73900032043457,-58.98500061035156 -25.301000595092773,-56.1510009765625 C-32.862998962402344,-53.31399917602539 -39.9119987487793,-48.939998626708984 -45.902000427246094,-43.34400177001953 C-51.9010009765625,-37.75400161743164 -56.77199935913086,-30.90399932861328 -60.180999755859375,-23.356000900268555 C-63.56800079345703,-15.793000221252441 -65.40299987792969,-7.515999794006348 -65.61000061035156,0.8560000061988831z"></path></g></g></g><g clip-path="url(#__lottie_element_246)" style="display: none;" transform="matrix(0.30000001192092896,0,0,0.30000001192092896,-48.30000305175781,-39.00000762939453)" opacity="1"><g style="display: block;" transform="matrix(1,0,0,1,182.98513793945312,285.2590026855469)" opacity="1"><g opacity="1" transform="matrix(1,0,0,1,52.095001220703125,168.3179931640625)"><path fill="#2960AD" fill-opacity="1" d=" M7.388000011444092,6.5289998054504395 C7.388000011444092,6.5289998054504395 -23.642000198364258,6.872000217437744 -23.642000198364258,6.872000217437744 C-23.642000198364258,6.872000217437744 -39.15800094604492,7.047999858856201 -39.15800094604492,7.047999858856201 C-39.15800094604492,7.047999858856201 -41.09600067138672,7.070000171661377 -41.09600067138672,7.070000171661377 C-41.09600067138672,7.070000171661377 -42.06700134277344,7.080999851226807 -42.06700134277344,7.080999851226807 C-42.4900016784668,7.080999851226807 -42.85499954223633,6.953000068664551 -42.992000579833984,6.796000003814697 C-43.25600051879883,6.505000114440918 -43.180999755859375,5.98199987411499 -42.86800003051758,5.718999862670898 C-42.86800003051758,5.718999862670898 -17.253000259399414,-10.204000473022461 -17.253000259399414,-10.204000473022461 C-17.253000259399414,-10.204000473022461 -21.200000762939453,-16.761999130249023 -21.200000762939453,-16.761999130249023 C-21.200000762939453,-16.761999130249023 -47.82899856567383,-1.246000051498413 -47.82899856567383,-1.246000051498413 C-47.82899856567383,-1.246000051498413 -48.1510009765625,-1.0579999685287476 -48.1510009765625,-1.0579999685287476 C-48.1510009765625,-1.0579999685287476 -48.49800109863281,-0.7480000257492065 -48.49800109863281,-0.7480000257492065 C-50.24700164794922,0.8149999976158142 -51.388999938964844,3.053999900817871 -51.61399841308594,5.4079999923706055 C-51.845001220703125,7.776000022888184 -51.17100143432617,10.187999725341797 -49.72999954223633,12.088000297546387 C-48.301998138427734,13.991000175476074 -46.14500045776367,15.322999954223633 -43.79100036621094,15.743000030517578 C-43.22800064086914,15.852999687194824 -42.553001403808594,15.89799976348877 -42.06700134277344,15.902000427246094 C-42.06700134277344,15.902000427246094 -41.09600067138672,15.911999702453613 -41.09600067138672,15.911999702453613 C-41.09600067138672,15.911999702453613 -39.15800094604492,15.934000015258789 -39.15800094604492,15.934000015258789 C-39.15800094604492,15.934000015258789 -23.642000198364258,16.111000061035156 -23.642000198364258,16.111000061035156 C-23.642000198364258,16.111000061035156 7.388000011444092,16.452999114990234 7.388000011444092,16.452999114990234 C7.388000011444092,16.452999114990234 51.845001220703125,16.761999130249023 51.845001220703125,16.761999130249023 C51.845001220703125,16.761999130249023 51.845001220703125,6.21999979019165 51.845001220703125,6.21999979019165 C51.845001220703125,6.21999979019165 7.388000011444092,6.5289998054504395 7.388000011444092,6.5289998054504395z"></path></g></g><g clip-path="url(#__lottie_element_259)" style="display: block;" transform="matrix(1,0,0,1,179.37013244628906,283.7030029296875)" opacity="1"><g opacity="1" transform="matrix(1,0,0,1,170.31100463867188,93.9280014038086)"><path fill="#2960AD" fill-opacity="1" d=" M-131.74900817871094,65.41300964355469 C-131.74900817871094,65.41300964355469 -157.9250030517578,81.6830062866211 -157.9250030517578,81.6830062866211 C-157.9250030517578,81.6830062866211 -157.25599670410156,81.18500518798828 -157.25599670410156,81.18500518798828 C-157.77000427246094,81.69900512695312 -157.48300170898438,82.63400268554688 -156.7689971923828,82.69400787353516 C-156.69500732421875,82.7020034790039 -156.72300720214844,82.69700622558594 -156.56199645996094,82.69800567626953 C-156.56199645996094,82.69800567626953 -155.59300231933594,82.68700408935547 -155.59300231933594,82.68700408935547 C-101.11900329589844,82.0110092163086 -37.358001708984375,81.62100982666016 17.012998580932617,81.33700561523438 C32.48299789428711,81.59600830078125 49.957984924316406,83.4969711303711 63.95397186279297,75.69495391845703 C75.64696502685547,69.66393280029297 85.80091094970703,61.692867279052734 92.91386413574219,51.0008430480957 C111.95775604248047,24.35777473449707 125.07666778564453,4.692727565765381 158.00262451171875,-5.867401123046875 C170.19259643554688,-9.542448997497559 181.40354919433594,-20.061491012573242 178.8935089111328,-33.59447479248047 C177.73646545410156,-41.9434700012207 173.44143676757812,-50.41244888305664 166.12442016601562,-54.91041946411133 C154.9344024658203,-60.59037399291992 141.62440490722656,-61.94432067871094 130.3314208984375,-56.09327697753906 C123.83543395996094,-54.514251708984375 102.84752655029297,-33.8001708984375 96.59154510498047,-28.567148208618164 C90.32357025146484,-22.925125122070312 53.51105880737305,7.388575077056885 47.189083099365234,12.96259880065918 C47.189083099365234,12.96259880065918 42.03306198120117,7.38762092590332 42.03306198120117,7.38762092590332 C42.03306198120117,7.38762092590332 78.34056854248047,-23.41807746887207 78.34056854248047,-23.41807746887207 C86.1225357055664,-30.94810676574707 106.95645141601562,-50.691184997558594 115.0074234008789,-58.430213928222656 C119.40940856933594,-61.9482307434082 124.48039245605469,-64.9072494506836 129.80038452148438,-67.07026672363281 C145.5863494873047,-73.8153305053711 166.6103515625,-70.75941467285156 178.96240234375,-58.78446960449219 C191.3594512939453,-46.01152420043945 195.5035400390625,-23.39154624938965 183.506591796875,-8.982501983642578 C173.14865112304688,4.571535110473633 155.503662109375,5.629605293273926 142.08970642089844,14.534656524658203 C110.30778503417969,32.7957763671875 102.03496551513672,73.1668930053711 65.6409912109375,88.0489501953125 C52.80699920654297,93.78396606445312 38.6349983215332,93.34700775146484 24.76999855041504,92.9070053100586 C1.5199980735778809,92.86200714111328 -21.805002212524414,92.65400695800781 -45.04800033569336,92.50100708007812 C-74.30000305175781,92.11300659179688 -126.7300033569336,92.0770034790039 -155.5919952392578,91.52900695800781 C-164.38900756835938,92.52900695800781 -169.9560089111328,80.73700714111328 -162.99400329589844,74.86800384521484 C-162.99400329589844,74.86900329589844 -162.64700317382812,74.55900573730469 -162.64700317382812,74.55900573730469 C-162.64700317382812,74.55900573730469 -162.3249969482422,74.37100982666016 -162.3249969482422,74.37100982666016 C-162.3249969482422,74.37100982666016 -135.6959991455078,58.85500717163086 -135.6959991455078,58.85500717163086 C-135.6959991455078,58.85500717163086 -131.74900817871094,65.41300964355469 -131.74900817871094,65.41300964355469z"></path></g></g><g style="display: block;" transform="matrix(0.996191143989563,-0.08719657361507416,0.08719657361507416,0.996191143989563,484.6591491699219,226.82626342773438)" opacity="1"><g opacity="1" transform="matrix(1,0,0,1,23.799999237060547,44.06700134277344)"><path fill="#2960AD" fill-opacity="1" d=" M20.759000778198242,-34.95899963378906 C17.67300033569336,-33.051998138427734 14.690999984741211,-30.958999633789062 12.119999885559082,-28.52899932861328 C9.557999610900879,-26.099000930786133 7.38700008392334,-23.343000411987305 5.828999996185303,-20.280000686645508 C4.2789998054504395,-17.21299934387207 3.3310000896453857,-13.843000411987305 2.9820001125335693,-10.272000312805176 C2.627000093460083,-6.695000171661377 2.746000051498413,-2.9560000896453857 2.9660000801086426,0.8949999809265137 C3.177000045776367,4.741000175476074 3.3989999294281006,8.746000289916992 3.1029999256134033,12.875 C2.7860000133514404,16.979999542236328 1.8769999742507935,21.260000228881836 -0.0860000029206276,25.084999084472656 C-1.9919999837875366,28.934999465942383 -4.714000225067139,32.26100158691406 -7.703999996185303,35.137001037597656 C-10.725000381469727,37.999000549316406 -14.055000305175781,40.358001708984375 -17.399999618530273,42.680999755859375 C-19.03499984741211,43.816001892089844 -21.27899932861328,43.4109992980957 -22.413999557495117,41.7760009765625 C-23.549999237060547,40.141998291015625 -23.143999099731445,37.895999908447266 -21.510000228881836,36.76100158691406 C-21.37700080871582,36.66899871826172 -21.239999771118164,36.58700180053711 -21.100000381469727,36.51499938964844 C-21.100000381469727,36.51499938964844 -20.98200035095215,36.45600128173828 -20.98200035095215,36.45600128173828 C-17.700000762939453,34.79399871826172 -14.520000457763672,32.909000396728516 -11.758000373840332,30.608999252319336 C-9.013999938964844,28.304000854492188 -6.675000190734863,25.615999221801758 -5.054999828338623,22.56100082397461 C-3.4049999713897705,19.513999938964844 -2.615999937057495,16.07200050354004 -2.388000011444092,12.479000091552734 C-2.117000102996826,8.880999565124512 -2.4519999027252197,5.138999938964844 -2.759000062942505,1.2710000276565552 C-3.0510001182556152,-2.5940001010894775 -3.384999990463257,-6.605999946594238 -3.1559998989105225,-10.755000114440918 C-2.9049999713897705,-14.894000053405762 -2.0429999828338623,-19.17099952697754 -0.3190000057220459,-23.121000289916992 C1.36899995803833,-27.09000015258789 3.8320000171661377,-30.652999877929688 6.591000080108643,-33.82899856567383 C9.361000061035156,-37.02299880981445 12.550999641418457,-39.6510009765625 15.73799991607666,-42.262001037597656 C17.63800048828125,-43.81700134277344 20.440000534057617,-43.53799819946289 21.9950008392334,-41.638999938964844 C23.551000595092773,-39.73899841308594 23.270999908447266,-36.9379997253418 21.371000289916992,-35.382999420166016 C21.224000930786133,-35.262001037597656 21.070999145507812,-35.152000427246094 20.913999557495117,-35.053001403808594 C20.913999557495117,-35.053001403808594 20.759000778198242,-34.95899963378906 20.759000778198242,-34.95899963378906z"></path></g></g><g style="display: block;" transform="matrix(0.996191143989563,-0.08719657361507416,0.08719657361507416,0.996191143989563,509.84521484375,231.48333740234375)" opacity="1"><g opacity="1" transform="matrix(1,0,0,1,24.08300018310547,44.361000061035156)"><path fill="#2960AD" fill-opacity="1" d=" M20.725000381469727,-34.18600082397461 C17.677000045776367,-32.2760009765625 14.720999717712402,-30.204999923706055 12.196000099182129,-27.80299949645996 C9.659000396728516,-25.415000915527344 7.564000129699707,-22.690000534057617 6.0269999504089355,-19.70400047302246 C4.499000072479248,-16.711999893188477 3.5369999408721924,-13.425000190734863 3.1689999103546143,-9.902999877929688 C2.812999963760376,-6.375 2.9040000438690186,-2.6610000133514404 3.0959999561309814,1.1890000104904175 C3.2839999198913574,5.0329999923706055 3.503999948501587,9.065999984741211 3.1449999809265137,13.229999542236328 C2.819999933242798,17.375 1.8240000009536743,21.68899917602539 -0.17599999904632568,25.538000106811523 C-1.1759999990463257,27.45400047302246 -2.3440001010894775,29.270999908447266 -3.6610000133514404,30.93899917602539 C-4.35099983215332,31.738000869750977 -4.980999946594238,32.61600112915039 -5.730999946594238,33.34400177001953 C-6.4710001945495605,34.08399963378906 -7.188000202178955,34.858001708984375 -7.946000099182129,35.57500076293945 C-11.005999565124512,38.415000915527344 -14.357000350952148,40.749000549316406 -17.739999771118164,43.007999420166016 C-19.392000198364258,44.11199951171875 -21.625999450683594,43.66699981689453 -22.729000091552734,42.01499938964844 C-23.83300018310547,40.36199951171875 -23.38800048828125,38.12799835205078 -21.736000061035156,37.025001525878906 C-21.650999069213867,36.96799850463867 -21.56399917602539,36.91600036621094 -21.47599983215332,36.867000579833984 C-21.47599983215332,36.867000579833984 -21.322999954223633,36.78300094604492 -21.322999954223633,36.78300094604492 C-21.322999954223633,36.78300094604492 -18.906999588012695,35.45600128173828 -18.906999588012695,35.45600128173828 C-18.906999588012695,35.45600128173828 -17.70800018310547,34.77299880981445 -17.70800018310547,34.77299880981445 C-17.70800018310547,34.77299880981445 -16.56999969482422,34.02299880981445 -16.56999969482422,34.02299880981445 C-15.822999954223633,33.512001037597656 -15.02299976348877,33.04600143432617 -14.312000274658203,32.499000549316406 C-14.312000274658203,32.499000549316406 -12.197999954223633,30.826000213623047 -12.197999954223633,30.826000213623047 C-9.50100040435791,28.493000030517578 -7.193999767303467,25.80699920654297 -5.644999980926514,22.76099967956543 C-4.0329999923706055,19.738000869750977 -3.3299999237060547,16.33099937438965 -3.1110000610351562,12.777999877929688 C-2.9030001163482666,9.21500015258789 -3.239000082015991,5.5 -3.568000078201294,1.6299999952316284 C-3.885999917984009,-2.234999895095825 -4.252999782562256,-6.270999908447266 -4.025000095367432,-10.470000267028809 C-3.7929999828338623,-14.657999992370605 -2.941999912261963,-19.017000198364258 -1.1959999799728394,-23.041000366210938 C0.5130000114440918,-27.08799934387207 3.0510001182556152,-30.68199920654297 5.835000038146973,-33.900001525878906 C8.64900016784668,-37.12200164794922 11.866000175476074,-39.77399826049805 15.092000007629395,-42.38100051879883 C17.233999252319336,-44.111000061035156 20.37299919128418,-43.77799987792969 22.104000091552734,-41.63600158691406 C23.833999633789062,-39.49399948120117 23.500999450683594,-36.35499954223633 21.358999252319336,-34.624000549316406 C21.208999633789062,-34.50400161743164 21.055999755859375,-34.393001556396484 20.898000717163086,-34.29199981689453 C20.898000717163086,-34.29199981689453 20.725000381469727,-34.18600082397461 20.725000381469727,-34.18600082397461z"></path><path fill="#2960AD" fill-opacity="1" d=" M20.725000381469727,-34.18600082397461 C17.677000045776367,-32.2760009765625 14.720999717712402,-30.204999923706055 12.196000099182129,-27.80299949645996 C9.659000396728516,-25.415000915527344 7.564000129699707,-22.690000534057617 6.0269999504089355,-19.70400047302246 C4.499000072479248,-16.711999893188477 3.5369999408721924,-13.425000190734863 3.1689999103546143,-9.902999877929688 C2.812999963760376,-6.375 2.9040000438690186,-2.6610000133514404 3.0959999561309814,1.1890000104904175 C3.2839999198913574,5.0329999923706055 3.503999948501587,9.065999984741211 3.1449999809265137,13.229999542236328 C2.819999933242798,17.375 1.8240000009536743,21.68899917602539 -0.17599999904632568,25.538000106811523 C-1.1759999990463257,27.45400047302246 -2.3440001010894775,29.270999908447266 -3.6610000133514404,30.93899917602539 C-4.35099983215332,31.738000869750977 -4.980999946594238,32.61600112915039 -5.730999946594238,33.34400177001953 C-6.4710001945495605,34.08399963378906 -7.188000202178955,34.858001708984375 -7.946000099182129,35.57500076293945 C-11.005999565124512,38.415000915527344 -14.357000350952148,40.749000549316406 -17.739999771118164,43.007999420166016 C-19.392000198364258,44.11199951171875 -21.625999450683594,43.66699981689453 -22.729000091552734,42.01499938964844 C-23.83300018310547,40.36199951171875 -23.38800048828125,38.12799835205078 -21.736000061035156,37.025001525878906 C-21.650999069213867,36.96799850463867 -21.56399917602539,36.91600036621094 -21.47599983215332,36.867000579833984 C-21.47599983215332,36.867000579833984 -21.322999954223633,36.78300094604492 -21.322999954223633,36.78300094604492 C-21.322999954223633,36.78300094604492 -18.906999588012695,35.45600128173828 -18.906999588012695,35.45600128173828 C-18.906999588012695,35.45600128173828 -17.70800018310547,34.77299880981445 -17.70800018310547,34.77299880981445 C-17.70800018310547,34.77299880981445 -16.56999969482422,34.02299880981445 -16.56999969482422,34.02299880981445 C-15.822999954223633,33.512001037597656 -15.02299976348877,33.04600143432617 -14.312000274658203,32.499000549316406 C-14.312000274658203,32.499000549316406 -12.197999954223633,30.826000213623047 -12.197999954223633,30.826000213623047 C-9.50100040435791,28.493000030517578 -7.193999767303467,25.80699920654297 -5.644999980926514,22.76099967956543 C-4.0329999923706055,19.738000869750977 -3.3299999237060547,16.33099937438965 -3.1110000610351562,12.777999877929688 C-2.9030001163482666,9.21500015258789 -3.239000082015991,5.5 -3.568000078201294,1.6299999952316284 C-3.885999917984009,-2.234999895095825 -4.252999782562256,-6.270999908447266 -4.025000095367432,-10.470000267028809 C-3.7929999828338623,-14.657999992370605 -2.941999912261963,-19.017000198364258 -1.1959999799728394,-23.041000366210938 C0.5130000114440918,-27.08799934387207 3.0510001182556152,-30.68199920654297 5.835000038146973,-33.900001525878906 C8.64900016784668,-37.12200164794922 11.866000175476074,-39.77399826049805 15.092000007629395,-42.38100051879883 C17.233999252319336,-44.111000061035156 20.37299919128418,-43.77799987792969 22.104000091552734,-41.63600158691406 C23.833999633789062,-39.49399948120117 23.500999450683594,-36.35499954223633 21.358999252319336,-34.624000549316406 C21.208999633789062,-34.50400161743164 21.055999755859375,-34.393001556396484 20.898000717163086,-34.29199981689453 C20.898000717163086,-34.29199981689453 20.725000381469727,-34.18600082397461 20.725000381469727,-34.18600082397461z"></path></g></g><g style="display: block;" transform="matrix(1,0,0,1,170.83413696289062,235.1800079345703)" opacity="1"><g opacity="1" transform="matrix(1,0,0,1,87.59700012207031,121.95899963378906)"><path fill="#2960AD" fill-opacity="1" d=" M28.475000381469727,-1.065999984741211 C28.746000289916992,6.208000183105469 26.070999145507812,13.699999809265137 20.996999740600586,19.27899932861328 C18.4689998626709,22.069000244140625 15.357000350952148,24.38800048828125 11.866999626159668,25.999000549316406 C8.381999969482422,27.614999771118164 4.519999980926514,28.506999969482422 0.6539999842643738,28.591999053955078 C-3.2119998931884766,28.663999557495117 -7.138999938964844,27.937000274658203 -10.73799991607666,26.429000854492188 C-14.338000297546387,24.92799949645996 -17.621000289916992,22.69499969482422 -20.32200050354004,19.91200065612793 C-25.75200080871582,14.366999626159668 -28.7450008392334,6.541999816894531 -28.429000854492188,-1.065999984741211 C-28.19300079345703,-8.687000274658203 -24.715999603271484,-16.02400016784668 -19.27199935913086,-20.989999771118164 C-13.843999862670898,-25.993000030517578 -6.495999813079834,-28.663000106811523 0.6539999842643738,-28.420000076293945 C4.223999977111816,-28.323999404907227 7.78000020980835,-27.54800033569336 11.029000282287598,-26.108999252319336 C14.276000022888184,-24.67099952697754 17.246999740600586,-22.665000915527344 19.785999298095703,-20.198999404907227 C22.316999435424805,-17.729999542236328 24.458999633789062,-14.817999839782715 25.972000122070312,-11.553999900817871 C27.492000579833984,-8.295999526977539 28.332000732421875,-4.696000099182129 28.475000381469727,-1.065999984741211z M19.781999588012695,-1.065999984741211 C19.915000915527344,-3.5829999446868896 19.545000076293945,-6.123000144958496 18.70800018310547,-8.541999816894531 C17.871999740600586,-10.956999778747559 16.530000686645508,-13.25 14.718999862670898,-15.130000114440918 C11.093999862670898,-18.945999145507812 5.775000095367432,-20.836000442504883 0.6539999842643738,-20.65999984741211 C-1.9220000505447388,-20.533000946044922 -4.429999828338623,-19.913999557495117 -6.704999923706055,-18.833999633789062 C-8.968999862670898,-17.731000900268555 -10.987000465393066,-16.18600082397461 -12.619000434875488,-14.338000297546387 C-15.913000106811523,-10.628999710083008 -17.490999221801758,-5.756999969482422 -17.214000701904297,-1.065999984741211 C-16.937999725341797,3.6389999389648438 -14.878000259399414,8.027999877929688 -11.569999694824219,11.157999992370605 C-8.272000312805176,14.310999870300293 -3.888000011444092,16.062000274658203 0.6539999842643738,16.226999282836914 C5.192999839782715,16.402000427246094 9.843999862670898,14.907999992370605 13.508000373840332,11.789999961853027 C17.172000885009766,8.694999694824219 19.55299949645996,3.9730000495910645 19.781999588012695,-1.065999984741211z"></path></g><g opacity="1" transform="matrix(1,0,0,1,118.09400177001953,118.42900085449219)"><path fill="#2960AD" fill-opacity="1" d=" M-109.91799926757812,-0.8560000061988831 C-109.70999908447266,13.307000160217285 -106.73200225830078,27.375 -101.11699676513672,40.28499984741211 C-95.48899841308594,53.18199920654297 -87.3290023803711,64.93299865722656 -77.23500061035156,74.61799621582031 C-67.14900207519531,84.30999755859375 -55.20000076293945,91.97200012207031 -42.290000915527344,97.02799987792969 C-29.378999710083008,102.08899688720703 -15.543999671936035,104.58100128173828 -1.7599999904632568,104.33200073242188 C5.130000114440918,104.21800231933594 11.993000030517578,103.45500183105469 18.702999114990234,102.0199966430664 C25.413000106811523,100.58599853515625 31.964000701904297,98.48899841308594 38.268001556396484,95.8219985961914 C50.87300109863281,90.46600341796875 62.354000091552734,82.58599853515625 72.0199966430664,72.9229965209961 C76.83899688720703,68.07499694824219 81.18399810791016,62.757999420166016 84.97000122070312,57.07400131225586 C88.76499938964844,51.395999908447266 92.04299926757812,45.37099838256836 94.6760025024414,39.07099914550781 C99.97899627685547,26.47599983215332 102.66799926757812,12.840999603271484 102.81999969482422,-0.8560000061988831 C102.93900299072266,-14.5649995803833 100.3010025024414,-28.25200080871582 95.21199798583984,-41.00600051879883 C90.11399841308594,-53.76100158691406 82.43299865722656,-65.50700378417969 72.83300018310547,-75.45099639892578 C63.2130012512207,-85.37899780273438 51.61800003051758,-93.44200134277344 38.875,-98.99700164794922 C26.134000778198242,-104.56400299072266 12.24899959564209,-107.56700134277344 -1.7619999647140503,-107.81400299072266 C-15.772000312805176,-108.06099700927734 -29.847999572753906,-105.5009994506836 -42.928001403808594,-100.27400207519531 C-56.02299880981445,-95.08399963378906 -68.08300018310547,-87.2040023803711 -78.20600128173828,-77.30000305175781 C-83.26599884033203,-72.3479995727539 -87.8499984741211,-66.89700317382812 -91.86399841308594,-61.04600143432617 C-95.86299896240234,-55.1870002746582 -99.27999877929688,-48.92100143432617 -102.01300048828125,-42.36899948120117 C-107.4990005493164,-29.2549991607666 -110.04100036621094,-15.005999565124512 -109.91799926757812,-0.8560000061988831z M-117.64600372314453,-0.8560000061988831 C-117.55899810791016,-8.435999870300293 -116.74299621582031,-16.003999710083008 -115.19000244140625,-23.413999557495117 C-113.61699676513672,-30.816999435424805 -111.38400268554688,-38.07600021362305 -108.4749984741211,-45.05500030517578 C-102.6969985961914,-59.02399826049805 -94.27100372314453,-71.91699981689453 -83.66600036621094,-82.76000213623047 C-73.0510025024414,-93.58899688720703 -60.29800033569336,-102.35600280761719 -46.30799865722656,-108.40399932861328 C-32.314998626708984,-114.4540023803711 -17.076000213623047,-117.68499755859375 -1.7619999647140503,-117.94200134277344 C13.552000045776367,-118.17900085449219 28.985000610351562,-115.39099884033203 43.316001892089844,-109.68000030517578 C57.65800094604492,-103.99700164794922 70.875,-95.41400146484375 81.99099731445312,-84.60800170898438 C93.125,-73.81500244140625 102.09200286865234,-60.74800109863281 108.23200225830078,-46.41899871826172 C114.4209976196289,-32.10100173950195 117.57499694824219,-16.472000122070312 117.7040023803711,-0.8560000061988831 C117.84500122070312,14.770999908447266 114.74400329589844,30.45199966430664 108.76799774169922,44.92900085449219 C105.77799987792969,52.16600036621094 102.09200286865234,59.12200164794922 97.72799682617188,65.625 C93.35600280761719,72.12200164794922 88.3499984741211,78.18699645996094 82.80699920654297,83.71099853515625 C71.73699951171875,94.78199768066406 58.404998779296875,103.5479965209961 43.92399978637695,109.43099975585938 C29.450000762939453,115.35199737548828 13.774999618530273,118.17900085449219 -1.7599999904632568,118 C-17.302000045776367,117.74199676513672 -32.78200149536133,114.44200134277344 -46.94300079345703,108.22599792480469 C-61.11800003051758,102.04299926757812 -73.98200225830078,93.05899810791016 -84.63300323486328,82.01699829101562 C-95.27300262451172,70.96600341796875 -103.76000213623047,57.90299987792969 -109.37100219726562,43.715999603271484 C-115.03299713134766,29.554000854492188 -117.84400177001953,14.305999755859375 -117.64600372314453,-0.8560000061988831z"></path></g><g opacity="1" transform="matrix(1,0,0,1,99.72699737548828,118.08300018310547)"><path fill="#2960AD" fill-opacity="1" d=" M-73.33799743652344,0.8560000061988831 C-73.7979965209961,-17.91200065612793 -66.4749984741211,-36.887001037597656 -53.29999923706055,-50.74300003051758 C-46.744998931884766,-57.689998626708984 -38.78200149536133,-63.387001037597656 -29.957000732421875,-67.3489990234375 C-21.141000747680664,-71.33799743652344 -11.451000213623047,-73.49400329589844 -1.7020000219345093,-73.75 C8.041000366210938,-73.93099975585938 17.924999237060547,-72.24800109863281 27.054000854492188,-68.55500030517578 C36.185001373291016,-64.89199829101562 44.617000579833984,-59.41299819946289 51.590999603271484,-52.4370002746582 C65.6989974975586,-38.62900161743164 73.7979965209961,-18.840999603271484 73.51200103759766,0.8560000061988831 C73.38500213623047,10.680000305175781 71.375,20.518999099731445 67.41400146484375,29.48900032043457 C63.49399948120117,38.470001220703125 57.814998626708984,46.637001037597656 50.7760009765625,53.33300018310547 C43.75400161743164,60.04399871826172 35.43899917602539,65.33899688720703 26.445999145507812,68.8030014038086 C17.461000442504883,72.28700256347656 7.821000099182129,73.93099975585938 -1.7020000219345093,73.69200134277344 C-11.223999977111816,73.43699645996094 -20.67300033569336,71.3499984741211 -29.319000244140625,67.5270004272461 C-37.959999084472656,63.698001861572266 -45.8129997253418,58.21900177001953 -52.33100128173828,51.48500061035156 C-58.840999603271484,44.73699951171875 -63.97999954223633,36.74599838256836 -67.53900146484375,28.12700080871582 C-69.33699798583984,23.820999145507812 -70.7229995727539,19.34600067138672 -71.73200225830078,14.781999588012695 C-72.71900177001953,10.213000297546387 -73.25499725341797,5.539999961853027 -73.33799743652344,0.8560000061988831z M-65.61000061035156,0.8560000061988831 C-65.73400115966797,9.21500015258789 -64.33499908447266,17.673999786376953 -61.07699966430664,25.440000534057617 C-59.45500183105469,29.319000244140625 -57.41299819946289,33.020999908447266 -55.025001525878906,36.4739990234375 C-52.62200164794922,39.91899871826172 -49.8849983215332,43.12099838256836 -46.87099838256836,46.025001525878906 C-34.84400177001953,57.72999954223633 -18.138999938964844,64.12100219726562 -1.7020000219345093,63.56399917602539 C6.517000198364258,63.319000244140625 14.612000465393066,61.459999084472656 22.0049991607666,58.119998931884766 C29.39900016784668,54.78499984741211 36.09400177001953,50.00899887084961 41.61899948120117,44.176998138427734 C47.12300109863281,38.327999114990234 51.51499938964844,31.482999801635742 54.39500045776367,24.07699966430664 C57.255001068115234,16.670000076293945 58.749000549316406,8.77299976348877 58.62799835205078,0.8560000061988831 C58.479000091552734,-7.050000190734863 56.93299865722656,-14.894000053405762 53.858001708984375,-22.14299964904785 C52.334999084472656,-25.768999099731445 50.43299865722656,-29.229999542236328 48.249000549316406,-32.50199890136719 C46.07500076293945,-35.78099822998047 43.57699966430664,-38.849998474121094 40.803001403808594,-41.64899826049805 C35.233001708984375,-47.21699905395508 28.652999877929688,-51.810001373291016 21.39699935913086,-54.94599914550781 C14.14799976348877,-58.07500076293945 6.295000076293945,-59.89500045776367 -1.7020000219345093,-60.082000732421875 C-9.692999839782715,-60.332000732421875 -17.73900032043457,-58.98500061035156 -25.301000595092773,-56.1510009765625 C-32.862998962402344,-53.31399917602539 -39.9119987487793,-48.939998626708984 -45.902000427246094,-43.34400177001953 C-51.9010009765625,-37.75400161743164 -56.77199935913086,-30.90399932861328 -60.180999755859375,-23.356000900268555 C-63.56800079345703,-15.793000221252441 -65.40299987792969,-7.515999794006348 -65.61000061035156,0.8560000061988831z"></path></g></g></g><g clip-path="url(#__lottie_element_227)" style="display: none;" transform="matrix(0.30000001192092896,0,0,0.30000001192092896,-48.30000305175781,-39.00000762939453)" opacity="1"><g style="display: block;" transform="matrix(1,0,0,1,182.98513793945312,285.2590026855469)" opacity="1"><g opacity="1" transform="matrix(1,0,0,1,52.095001220703125,168.3179931640625)"><path fill="#2960AD" fill-opacity="1" d=" M7.388000011444092,6.5289998054504395 C7.388000011444092,6.5289998054504395 -23.642000198364258,6.872000217437744 -23.642000198364258,6.872000217437744 C-23.642000198364258,6.872000217437744 -39.15800094604492,7.047999858856201 -39.15800094604492,7.047999858856201 C-39.15800094604492,7.047999858856201 -41.09600067138672,7.070000171661377 -41.09600067138672,7.070000171661377 C-41.09600067138672,7.070000171661377 -42.06700134277344,7.080999851226807 -42.06700134277344,7.080999851226807 C-42.4900016784668,7.080999851226807 -42.85499954223633,6.953000068664551 -42.992000579833984,6.796000003814697 C-43.25600051879883,6.505000114440918 -43.180999755859375,5.98199987411499 -42.86800003051758,5.718999862670898 C-42.86800003051758,5.718999862670898 -17.253000259399414,-10.204000473022461 -17.253000259399414,-10.204000473022461 C-17.253000259399414,-10.204000473022461 -21.200000762939453,-16.761999130249023 -21.200000762939453,-16.761999130249023 C-21.200000762939453,-16.761999130249023 -47.82899856567383,-1.246000051498413 -47.82899856567383,-1.246000051498413 C-47.82899856567383,-1.246000051498413 -48.1510009765625,-1.0579999685287476 -48.1510009765625,-1.0579999685287476 C-48.1510009765625,-1.0579999685287476 -48.49800109863281,-0.7480000257492065 -48.49800109863281,-0.7480000257492065 C-50.24700164794922,0.8149999976158142 -51.388999938964844,3.053999900817871 -51.61399841308594,5.4079999923706055 C-51.845001220703125,7.776000022888184 -51.17100143432617,10.187999725341797 -49.72999954223633,12.088000297546387 C-48.301998138427734,13.991000175476074 -46.14500045776367,15.322999954223633 -43.79100036621094,15.743000030517578 C-43.22800064086914,15.852999687194824 -42.553001403808594,15.89799976348877 -42.06700134277344,15.902000427246094 C-42.06700134277344,15.902000427246094 -41.09600067138672,15.911999702453613 -41.09600067138672,15.911999702453613 C-41.09600067138672,15.911999702453613 -39.15800094604492,15.934000015258789 -39.15800094604492,15.934000015258789 C-39.15800094604492,15.934000015258789 -23.642000198364258,16.111000061035156 -23.642000198364258,16.111000061035156 C-23.642000198364258,16.111000061035156 7.388000011444092,16.452999114990234 7.388000011444092,16.452999114990234 C7.388000011444092,16.452999114990234 51.845001220703125,16.761999130249023 51.845001220703125,16.761999130249023 C51.845001220703125,16.761999130249023 51.845001220703125,6.21999979019165 51.845001220703125,6.21999979019165 C51.845001220703125,6.21999979019165 7.388000011444092,6.5289998054504395 7.388000011444092,6.5289998054504395z"></path></g></g><g clip-path="url(#__lottie_element_240)" style="display: block;" transform="matrix(1,0,0,1,179.37013244628906,283.7030029296875)" opacity="1"><g opacity="1" transform="matrix(1,0,0,1,170.31100463867188,93.9280014038086)"><path fill="#2960AD" fill-opacity="1" d=" M-131.74900817871094,65.41300964355469 C-131.74900817871094,65.41300964355469 -157.9250030517578,81.6830062866211 -157.9250030517578,81.6830062866211 C-157.9250030517578,81.6830062866211 -157.25599670410156,81.18500518798828 -157.25599670410156,81.18500518798828 C-157.77000427246094,81.69900512695312 -157.48300170898438,82.63400268554688 -156.7689971923828,82.69400787353516 C-156.69500732421875,82.7020034790039 -156.72300720214844,82.69700622558594 -156.56199645996094,82.69800567626953 C-156.56199645996094,82.69800567626953 -155.59300231933594,82.68700408935547 -155.59300231933594,82.68700408935547 C-101.11900329589844,82.0110092163086 -37.358001708984375,81.62100982666016 17.012998580932617,81.33700561523438 C32.48299789428711,81.59600830078125 49.957984924316406,83.4969711303711 63.95397186279297,75.6949462890625 C75.64696502685547,69.66393280029297 85.8009033203125,61.69286346435547 92.91386413574219,51.00083923339844 C111.95774841308594,24.35776710510254 125.07666015625,4.692718982696533 158.0026092529297,-5.86741304397583 C170.1925811767578,-9.542462348937988 181.40353393554688,-20.061504364013672 178.89349365234375,-33.59449005126953 C177.7364501953125,-41.943485260009766 173.44142150878906,-50.4124641418457 166.12440490722656,-54.910430908203125 C154.93438720703125,-60.59038543701172 141.62437438964844,-61.94432830810547 130.33140563964844,-56.093284606933594 C123.83541870117188,-54.514259338378906 102.8475112915039,-33.80017852783203 96.5915298461914,-28.567153930664062 C90.32355499267578,-22.925128936767578 53.51105880737305,7.388562202453613 47.189083099365234,12.962586402893066 C47.189083099365234,12.962586402893066 42.03306198120117,7.387609481811523 42.03306198120117,7.387609481811523 C42.03306198120117,7.387609481811523 78.34056091308594,-23.418079376220703 78.34056091308594,-23.418079376220703 C86.12252807617188,-30.948110580444336 106.95643615722656,-50.69118881225586 115.00740051269531,-58.43022155761719 C119.40938568115234,-61.948238372802734 124.48037719726562,-64.90725708007812 129.8003692626953,-67.07028198242188 C145.58633422851562,-73.81533813476562 166.61033630371094,-70.75942993164062 178.96238708496094,-58.78448486328125 C191.35943603515625,-46.011539459228516 195.50352478027344,-23.39156150817871 183.506591796875,-8.98251724243164 C173.14865112304688,4.571521282196045 155.503662109375,5.629593372344971 142.08969116210938,14.534646034240723 C110.30777740478516,32.795772552490234 102.03496551513672,73.1668930053711 65.6409912109375,88.04894256591797 C52.80699920654297,93.78396606445312 38.6349983215332,93.34700775146484 24.76999855041504,92.9070053100586 C1.5199980735778809,92.86200714111328 -21.805002212524414,92.65400695800781 -45.04800033569336,92.50100708007812 C-74.30000305175781,92.11300659179688 -126.7300033569336,92.0770034790039 -155.5919952392578,91.52900695800781 C-164.38900756835938,92.52900695800781 -169.9560089111328,80.73700714111328 -162.99400329589844,74.86800384521484 C-162.99400329589844,74.86900329589844 -162.64700317382812,74.55900573730469 -162.64700317382812,74.55900573730469 C-162.64700317382812,74.55900573730469 -162.3249969482422,74.37100982666016 -162.3249969482422,74.37100982666016 C-162.3249969482422,74.37100982666016 -135.6959991455078,58.85500717163086 -135.6959991455078,58.85500717163086 C-135.6959991455078,58.85500717163086 -131.74900817871094,65.41300964355469 -131.74900817871094,65.41300964355469z"></path></g></g><g style="display: block;" transform="matrix(0.9961910247802734,-0.08719780296087265,0.08719780296087265,0.9961910247802734,484.6590576171875,226.82626342773438)" opacity="1"><g opacity="1" transform="matrix(1,0,0,1,23.799999237060547,44.06700134277344)"><path fill="#2960AD" fill-opacity="1" d=" M20.759000778198242,-34.95899963378906 C17.67300033569336,-33.051998138427734 14.690999984741211,-30.958999633789062 12.119999885559082,-28.52899932861328 C9.557999610900879,-26.099000930786133 7.38700008392334,-23.343000411987305 5.828999996185303,-20.280000686645508 C4.2789998054504395,-17.21299934387207 3.3310000896453857,-13.843000411987305 2.9820001125335693,-10.272000312805176 C2.627000093460083,-6.695000171661377 2.746000051498413,-2.9560000896453857 2.9660000801086426,0.8949999809265137 C3.177000045776367,4.741000175476074 3.3989999294281006,8.746000289916992 3.1029999256134033,12.875 C2.7860000133514404,16.979999542236328 1.8769999742507935,21.260000228881836 -0.0860000029206276,25.084999084472656 C-1.9919999837875366,28.934999465942383 -4.714000225067139,32.26100158691406 -7.703999996185303,35.137001037597656 C-10.725000381469727,37.999000549316406 -14.055000305175781,40.358001708984375 -17.399999618530273,42.680999755859375 C-19.03499984741211,43.816001892089844 -21.27899932861328,43.4109992980957 -22.413999557495117,41.7760009765625 C-23.549999237060547,40.141998291015625 -23.143999099731445,37.895999908447266 -21.510000228881836,36.76100158691406 C-21.37700080871582,36.66899871826172 -21.239999771118164,36.58700180053711 -21.100000381469727,36.51499938964844 C-21.100000381469727,36.51499938964844 -20.98200035095215,36.45600128173828 -20.98200035095215,36.45600128173828 C-17.700000762939453,34.79399871826172 -14.520000457763672,32.909000396728516 -11.758000373840332,30.608999252319336 C-9.013999938964844,28.304000854492188 -6.675000190734863,25.615999221801758 -5.054999828338623,22.56100082397461 C-3.4049999713897705,19.513999938964844 -2.615999937057495,16.07200050354004 -2.388000011444092,12.479000091552734 C-2.117000102996826,8.880999565124512 -2.4519999027252197,5.138999938964844 -2.759000062942505,1.2710000276565552 C-3.0510001182556152,-2.5940001010894775 -3.384999990463257,-6.605999946594238 -3.1559998989105225,-10.755000114440918 C-2.9049999713897705,-14.894000053405762 -2.0429999828338623,-19.17099952697754 -0.3190000057220459,-23.121000289916992 C1.36899995803833,-27.09000015258789 3.8320000171661377,-30.652999877929688 6.591000080108643,-33.82899856567383 C9.361000061035156,-37.02299880981445 12.550999641418457,-39.6510009765625 15.73799991607666,-42.262001037597656 C17.63800048828125,-43.81700134277344 20.440000534057617,-43.53799819946289 21.9950008392334,-41.638999938964844 C23.551000595092773,-39.73899841308594 23.270999908447266,-36.9379997253418 21.371000289916992,-35.382999420166016 C21.224000930786133,-35.262001037597656 21.070999145507812,-35.152000427246094 20.913999557495117,-35.053001403808594 C20.913999557495117,-35.053001403808594 20.759000778198242,-34.95899963378906 20.759000778198242,-34.95899963378906z"></path></g></g><g style="display: block;" transform="matrix(0.9961910247802734,-0.08719780296087265,0.08719780296087265,0.9961910247802734,509.8451232910156,231.48333740234375)" opacity="1"><g opacity="1" transform="matrix(1,0,0,1,24.08300018310547,44.361000061035156)"><path fill="#2960AD" fill-opacity="1" d=" M20.725000381469727,-34.18600082397461 C17.677000045776367,-32.2760009765625 14.720999717712402,-30.204999923706055 12.196000099182129,-27.80299949645996 C9.659000396728516,-25.415000915527344 7.564000129699707,-22.690000534057617 6.0269999504089355,-19.70400047302246 C4.499000072479248,-16.711999893188477 3.5369999408721924,-13.425000190734863 3.1689999103546143,-9.902999877929688 C2.812999963760376,-6.375 2.9040000438690186,-2.6610000133514404 3.0959999561309814,1.1890000104904175 C3.2839999198913574,5.0329999923706055 3.503999948501587,9.065999984741211 3.1449999809265137,13.229999542236328 C2.819999933242798,17.375 1.8240000009536743,21.68899917602539 -0.17599999904632568,25.538000106811523 C-1.1759999990463257,27.45400047302246 -2.3440001010894775,29.270999908447266 -3.6610000133514404,30.93899917602539 C-4.35099983215332,31.738000869750977 -4.980999946594238,32.61600112915039 -5.730999946594238,33.34400177001953 C-6.4710001945495605,34.08399963378906 -7.188000202178955,34.858001708984375 -7.946000099182129,35.57500076293945 C-11.005999565124512,38.415000915527344 -14.357000350952148,40.749000549316406 -17.739999771118164,43.007999420166016 C-19.392000198364258,44.11199951171875 -21.625999450683594,43.66699981689453 -22.729000091552734,42.01499938964844 C-23.83300018310547,40.36199951171875 -23.38800048828125,38.12799835205078 -21.736000061035156,37.025001525878906 C-21.650999069213867,36.96799850463867 -21.56399917602539,36.91600036621094 -21.47599983215332,36.867000579833984 C-21.47599983215332,36.867000579833984 -21.322999954223633,36.78300094604492 -21.322999954223633,36.78300094604492 C-21.322999954223633,36.78300094604492 -18.906999588012695,35.45600128173828 -18.906999588012695,35.45600128173828 C-18.906999588012695,35.45600128173828 -17.70800018310547,34.77299880981445 -17.70800018310547,34.77299880981445 C-17.70800018310547,34.77299880981445 -16.56999969482422,34.02299880981445 -16.56999969482422,34.02299880981445 C-15.822999954223633,33.512001037597656 -15.02299976348877,33.04600143432617 -14.312000274658203,32.499000549316406 C-14.312000274658203,32.499000549316406 -12.197999954223633,30.826000213623047 -12.197999954223633,30.826000213623047 C-9.50100040435791,28.493000030517578 -7.193999767303467,25.80699920654297 -5.644999980926514,22.76099967956543 C-4.0329999923706055,19.738000869750977 -3.3299999237060547,16.33099937438965 -3.1110000610351562,12.777999877929688 C-2.9030001163482666,9.21500015258789 -3.239000082015991,5.5 -3.568000078201294,1.6299999952316284 C-3.885999917984009,-2.234999895095825 -4.252999782562256,-6.270999908447266 -4.025000095367432,-10.470000267028809 C-3.7929999828338623,-14.657999992370605 -2.941999912261963,-19.017000198364258 -1.1959999799728394,-23.041000366210938 C0.5130000114440918,-27.08799934387207 3.0510001182556152,-30.68199920654297 5.835000038146973,-33.900001525878906 C8.64900016784668,-37.12200164794922 11.866000175476074,-39.77399826049805 15.092000007629395,-42.38100051879883 C17.233999252319336,-44.111000061035156 20.37299919128418,-43.77799987792969 22.104000091552734,-41.63600158691406 C23.833999633789062,-39.49399948120117 23.500999450683594,-36.35499954223633 21.358999252319336,-34.624000549316406 C21.208999633789062,-34.50400161743164 21.055999755859375,-34.393001556396484 20.898000717163086,-34.29199981689453 C20.898000717163086,-34.29199981689453 20.725000381469727,-34.18600082397461 20.725000381469727,-34.18600082397461z"></path><path fill="#2960AD" fill-opacity="1" d=" M20.725000381469727,-34.18600082397461 C17.677000045776367,-32.2760009765625 14.720999717712402,-30.204999923706055 12.196000099182129,-27.80299949645996 C9.659000396728516,-25.415000915527344 7.564000129699707,-22.690000534057617 6.0269999504089355,-19.70400047302246 C4.499000072479248,-16.711999893188477 3.5369999408721924,-13.425000190734863 3.1689999103546143,-9.902999877929688 C2.812999963760376,-6.375 2.9040000438690186,-2.6610000133514404 3.0959999561309814,1.1890000104904175 C3.2839999198913574,5.0329999923706055 3.503999948501587,9.065999984741211 3.1449999809265137,13.229999542236328 C2.819999933242798,17.375 1.8240000009536743,21.68899917602539 -0.17599999904632568,25.538000106811523 C-1.1759999990463257,27.45400047302246 -2.3440001010894775,29.270999908447266 -3.6610000133514404,30.93899917602539 C-4.35099983215332,31.738000869750977 -4.980999946594238,32.61600112915039 -5.730999946594238,33.34400177001953 C-6.4710001945495605,34.08399963378906 -7.188000202178955,34.858001708984375 -7.946000099182129,35.57500076293945 C-11.005999565124512,38.415000915527344 -14.357000350952148,40.749000549316406 -17.739999771118164,43.007999420166016 C-19.392000198364258,44.11199951171875 -21.625999450683594,43.66699981689453 -22.729000091552734,42.01499938964844 C-23.83300018310547,40.36199951171875 -23.38800048828125,38.12799835205078 -21.736000061035156,37.025001525878906 C-21.650999069213867,36.96799850463867 -21.56399917602539,36.91600036621094 -21.47599983215332,36.867000579833984 C-21.47599983215332,36.867000579833984 -21.322999954223633,36.78300094604492 -21.322999954223633,36.78300094604492 C-21.322999954223633,36.78300094604492 -18.906999588012695,35.45600128173828 -18.906999588012695,35.45600128173828 C-18.906999588012695,35.45600128173828 -17.70800018310547,34.77299880981445 -17.70800018310547,34.77299880981445 C-17.70800018310547,34.77299880981445 -16.56999969482422,34.02299880981445 -16.56999969482422,34.02299880981445 C-15.822999954223633,33.512001037597656 -15.02299976348877,33.04600143432617 -14.312000274658203,32.499000549316406 C-14.312000274658203,32.499000549316406 -12.197999954223633,30.826000213623047 -12.197999954223633,30.826000213623047 C-9.50100040435791,28.493000030517578 -7.193999767303467,25.80699920654297 -5.644999980926514,22.76099967956543 C-4.0329999923706055,19.738000869750977 -3.3299999237060547,16.33099937438965 -3.1110000610351562,12.777999877929688 C-2.9030001163482666,9.21500015258789 -3.239000082015991,5.5 -3.568000078201294,1.6299999952316284 C-3.885999917984009,-2.234999895095825 -4.252999782562256,-6.270999908447266 -4.025000095367432,-10.470000267028809 C-3.7929999828338623,-14.657999992370605 -2.941999912261963,-19.017000198364258 -1.1959999799728394,-23.041000366210938 C0.5130000114440918,-27.08799934387207 3.0510001182556152,-30.68199920654297 5.835000038146973,-33.900001525878906 C8.64900016784668,-37.12200164794922 11.866000175476074,-39.77399826049805 15.092000007629395,-42.38100051879883 C17.233999252319336,-44.111000061035156 20.37299919128418,-43.77799987792969 22.104000091552734,-41.63600158691406 C23.833999633789062,-39.49399948120117 23.500999450683594,-36.35499954223633 21.358999252319336,-34.624000549316406 C21.208999633789062,-34.50400161743164 21.055999755859375,-34.393001556396484 20.898000717163086,-34.29199981689453 C20.898000717163086,-34.29199981689453 20.725000381469727,-34.18600082397461 20.725000381469727,-34.18600082397461z"></path></g></g><g style="display: block;" transform="matrix(1,0,0,1,170.83413696289062,235.1800079345703)" opacity="1"><g opacity="1" transform="matrix(1,0,0,1,87.59700012207031,121.95899963378906)"><path fill="#2960AD" fill-opacity="1" d=" M28.475000381469727,-1.065999984741211 C28.746000289916992,6.208000183105469 26.070999145507812,13.699999809265137 20.996999740600586,19.27899932861328 C18.4689998626709,22.069000244140625 15.357000350952148,24.38800048828125 11.866999626159668,25.999000549316406 C8.381999969482422,27.614999771118164 4.519999980926514,28.506999969482422 0.6539999842643738,28.591999053955078 C-3.2119998931884766,28.663999557495117 -7.138999938964844,27.937000274658203 -10.73799991607666,26.429000854492188 C-14.338000297546387,24.92799949645996 -17.621000289916992,22.69499969482422 -20.32200050354004,19.91200065612793 C-25.75200080871582,14.366999626159668 -28.7450008392334,6.541999816894531 -28.429000854492188,-1.065999984741211 C-28.19300079345703,-8.687000274658203 -24.715999603271484,-16.02400016784668 -19.27199935913086,-20.989999771118164 C-13.843999862670898,-25.993000030517578 -6.495999813079834,-28.663000106811523 0.6539999842643738,-28.420000076293945 C4.223999977111816,-28.323999404907227 7.78000020980835,-27.54800033569336 11.029000282287598,-26.108999252319336 C14.276000022888184,-24.67099952697754 17.246999740600586,-22.665000915527344 19.785999298095703,-20.198999404907227 C22.316999435424805,-17.729999542236328 24.458999633789062,-14.817999839782715 25.972000122070312,-11.553999900817871 C27.492000579833984,-8.295999526977539 28.332000732421875,-4.696000099182129 28.475000381469727,-1.065999984741211z M19.781999588012695,-1.065999984741211 C19.915000915527344,-3.5829999446868896 19.545000076293945,-6.123000144958496 18.70800018310547,-8.541999816894531 C17.871999740600586,-10.956999778747559 16.530000686645508,-13.25 14.718999862670898,-15.130000114440918 C11.093999862670898,-18.945999145507812 5.775000095367432,-20.836000442504883 0.6539999842643738,-20.65999984741211 C-1.9220000505447388,-20.533000946044922 -4.429999828338623,-19.913999557495117 -6.704999923706055,-18.833999633789062 C-8.968999862670898,-17.731000900268555 -10.987000465393066,-16.18600082397461 -12.619000434875488,-14.338000297546387 C-15.913000106811523,-10.628999710083008 -17.490999221801758,-5.756999969482422 -17.214000701904297,-1.065999984741211 C-16.937999725341797,3.6389999389648438 -14.878000259399414,8.027999877929688 -11.569999694824219,11.157999992370605 C-8.272000312805176,14.310999870300293 -3.888000011444092,16.062000274658203 0.6539999842643738,16.226999282836914 C5.192999839782715,16.402000427246094 9.843999862670898,14.907999992370605 13.508000373840332,11.789999961853027 C17.172000885009766,8.694999694824219 19.55299949645996,3.9730000495910645 19.781999588012695,-1.065999984741211z"></path></g><g opacity="1" transform="matrix(1,0,0,1,118.09400177001953,118.42900085449219)"><path fill="#2960AD" fill-opacity="1" d=" M-109.91799926757812,-0.8560000061988831 C-109.70999908447266,13.307000160217285 -106.73200225830078,27.375 -101.11699676513672,40.28499984741211 C-95.48899841308594,53.18199920654297 -87.3290023803711,64.93299865722656 -77.23500061035156,74.61799621582031 C-67.14900207519531,84.30999755859375 -55.20000076293945,91.97200012207031 -42.290000915527344,97.02799987792969 C-29.378999710083008,102.08899688720703 -15.543999671936035,104.58100128173828 -1.7599999904632568,104.33200073242188 C5.130000114440918,104.21800231933594 11.993000030517578,103.45500183105469 18.702999114990234,102.0199966430664 C25.413000106811523,100.58599853515625 31.964000701904297,98.48899841308594 38.268001556396484,95.8219985961914 C50.87300109863281,90.46600341796875 62.354000091552734,82.58599853515625 72.0199966430664,72.9229965209961 C76.83899688720703,68.07499694824219 81.18399810791016,62.757999420166016 84.97000122070312,57.07400131225586 C88.76499938964844,51.395999908447266 92.04299926757812,45.37099838256836 94.6760025024414,39.07099914550781 C99.97899627685547,26.47599983215332 102.66799926757812,12.840999603271484 102.81999969482422,-0.8560000061988831 C102.93900299072266,-14.5649995803833 100.3010025024414,-28.25200080871582 95.21199798583984,-41.00600051879883 C90.11399841308594,-53.76100158691406 82.43299865722656,-65.50700378417969 72.83300018310547,-75.45099639892578 C63.2130012512207,-85.37899780273438 51.61800003051758,-93.44200134277344 38.875,-98.99700164794922 C26.134000778198242,-104.56400299072266 12.24899959564209,-107.56700134277344 -1.7619999647140503,-107.81400299072266 C-15.772000312805176,-108.06099700927734 -29.847999572753906,-105.5009994506836 -42.928001403808594,-100.27400207519531 C-56.02299880981445,-95.08399963378906 -68.08300018310547,-87.2040023803711 -78.20600128173828,-77.30000305175781 C-83.26599884033203,-72.3479995727539 -87.8499984741211,-66.89700317382812 -91.86399841308594,-61.04600143432617 C-95.86299896240234,-55.1870002746582 -99.27999877929688,-48.92100143432617 -102.01300048828125,-42.36899948120117 C-107.4990005493164,-29.2549991607666 -110.04100036621094,-15.005999565124512 -109.91799926757812,-0.8560000061988831z M-117.64600372314453,-0.8560000061988831 C-117.55899810791016,-8.435999870300293 -116.74299621582031,-16.003999710083008 -115.19000244140625,-23.413999557495117 C-113.61699676513672,-30.816999435424805 -111.38400268554688,-38.07600021362305 -108.4749984741211,-45.05500030517578 C-102.6969985961914,-59.02399826049805 -94.27100372314453,-71.91699981689453 -83.66600036621094,-82.76000213623047 C-73.0510025024414,-93.58899688720703 -60.29800033569336,-102.35600280761719 -46.30799865722656,-108.40399932861328 C-32.314998626708984,-114.4540023803711 -17.076000213623047,-117.68499755859375 -1.7619999647140503,-117.94200134277344 C13.552000045776367,-118.17900085449219 28.985000610351562,-115.39099884033203 43.316001892089844,-109.68000030517578 C57.65800094604492,-103.99700164794922 70.875,-95.41400146484375 81.99099731445312,-84.60800170898438 C93.125,-73.81500244140625 102.09200286865234,-60.74800109863281 108.23200225830078,-46.41899871826172 C114.4209976196289,-32.10100173950195 117.57499694824219,-16.472000122070312 117.7040023803711,-0.8560000061988831 C117.84500122070312,14.770999908447266 114.74400329589844,30.45199966430664 108.76799774169922,44.92900085449219 C105.77799987792969,52.16600036621094 102.09200286865234,59.12200164794922 97.72799682617188,65.625 C93.35600280761719,72.12200164794922 88.3499984741211,78.18699645996094 82.80699920654297,83.71099853515625 C71.73699951171875,94.78199768066406 58.404998779296875,103.5479965209961 43.92399978637695,109.43099975585938 C29.450000762939453,115.35199737548828 13.774999618530273,118.17900085449219 -1.7599999904632568,118 C-17.302000045776367,117.74199676513672 -32.78200149536133,114.44200134277344 -46.94300079345703,108.22599792480469 C-61.11800003051758,102.04299926757812 -73.98200225830078,93.05899810791016 -84.63300323486328,82.01699829101562 C-95.27300262451172,70.96600341796875 -103.76000213623047,57.90299987792969 -109.37100219726562,43.715999603271484 C-115.03299713134766,29.554000854492188 -117.84400177001953,14.305999755859375 -117.64600372314453,-0.8560000061988831z"></path></g><g opacity="1" transform="matrix(1,0,0,1,99.72699737548828,118.08300018310547)"><path fill="#2960AD" fill-opacity="1" d=" M-73.33799743652344,0.8560000061988831 C-73.7979965209961,-17.91200065612793 -66.4749984741211,-36.887001037597656 -53.29999923706055,-50.74300003051758 C-46.744998931884766,-57.689998626708984 -38.78200149536133,-63.387001037597656 -29.957000732421875,-67.3489990234375 C-21.141000747680664,-71.33799743652344 -11.451000213623047,-73.49400329589844 -1.7020000219345093,-73.75 C8.041000366210938,-73.93099975585938 17.924999237060547,-72.24800109863281 27.054000854492188,-68.55500030517578 C36.185001373291016,-64.89199829101562 44.617000579833984,-59.41299819946289 51.590999603271484,-52.4370002746582 C65.6989974975586,-38.62900161743164 73.7979965209961,-18.840999603271484 73.51200103759766,0.8560000061988831 C73.38500213623047,10.680000305175781 71.375,20.518999099731445 67.41400146484375,29.48900032043457 C63.49399948120117,38.470001220703125 57.814998626708984,46.637001037597656 50.7760009765625,53.33300018310547 C43.75400161743164,60.04399871826172 35.43899917602539,65.33899688720703 26.445999145507812,68.8030014038086 C17.461000442504883,72.28700256347656 7.821000099182129,73.93099975585938 -1.7020000219345093,73.69200134277344 C-11.223999977111816,73.43699645996094 -20.67300033569336,71.3499984741211 -29.319000244140625,67.5270004272461 C-37.959999084472656,63.698001861572266 -45.8129997253418,58.21900177001953 -52.33100128173828,51.48500061035156 C-58.840999603271484,44.73699951171875 -63.97999954223633,36.74599838256836 -67.53900146484375,28.12700080871582 C-69.33699798583984,23.820999145507812 -70.7229995727539,19.34600067138672 -71.73200225830078,14.781999588012695 C-72.71900177001953,10.213000297546387 -73.25499725341797,5.539999961853027 -73.33799743652344,0.8560000061988831z M-65.61000061035156,0.8560000061988831 C-65.73400115966797,9.21500015258789 -64.33499908447266,17.673999786376953 -61.07699966430664,25.440000534057617 C-59.45500183105469,29.319000244140625 -57.41299819946289,33.020999908447266 -55.025001525878906,36.4739990234375 C-52.62200164794922,39.91899871826172 -49.8849983215332,43.12099838256836 -46.87099838256836,46.025001525878906 C-34.84400177001953,57.72999954223633 -18.138999938964844,64.12100219726562 -1.7020000219345093,63.56399917602539 C6.517000198364258,63.319000244140625 14.612000465393066,61.459999084472656 22.0049991607666,58.119998931884766 C29.39900016784668,54.78499984741211 36.09400177001953,50.00899887084961 41.61899948120117,44.176998138427734 C47.12300109863281,38.327999114990234 51.51499938964844,31.482999801635742 54.39500045776367,24.07699966430664 C57.255001068115234,16.670000076293945 58.749000549316406,8.77299976348877 58.62799835205078,0.8560000061988831 C58.479000091552734,-7.050000190734863 56.93299865722656,-14.894000053405762 53.858001708984375,-22.14299964904785 C52.334999084472656,-25.768999099731445 50.43299865722656,-29.229999542236328 48.249000549316406,-32.50199890136719 C46.07500076293945,-35.78099822998047 43.57699966430664,-38.849998474121094 40.803001403808594,-41.64899826049805 C35.233001708984375,-47.21699905395508 28.652999877929688,-51.810001373291016 21.39699935913086,-54.94599914550781 C14.14799976348877,-58.07500076293945 6.295000076293945,-59.89500045776367 -1.7020000219345093,-60.082000732421875 C-9.692999839782715,-60.332000732421875 -17.73900032043457,-58.98500061035156 -25.301000595092773,-56.1510009765625 C-32.862998962402344,-53.31399917602539 -39.9119987487793,-48.939998626708984 -45.902000427246094,-43.34400177001953 C-51.9010009765625,-37.75400161743164 -56.77199935913086,-30.90399932861328 -60.180999755859375,-23.356000900268555 C-63.56800079345703,-15.793000221252441 -65.40299987792969,-7.515999794006348 -65.61000061035156,0.8560000061988831z"></path></g></g></g></g></svg>