<svg id="Layer_1" data-name="Layer 1" xmlns="http://www.w3.org/2000/svg" viewBox="0 0 827.62 150.76"><path d="M67.5,117.43c1.1-3.42,2.26-6.82,3.3-10.26,9-29.93,14.78-60.38,14.82-91.77,0-7.4.24-7.4,7.47-7.41,15.68,0,15.63,0,19.72,15.11,8.47,31.31,18.56,62.11,29.54,92.63a13.56,13.56,0,0,0,1,1.75c1.94-1.26,1.88-3.23,2.34-4.88,9.13-32.81,12.71-65.95,5.45-99.63-.94-4.36.55-5.16,4.4-5.05,7.16.21,14.33.18,21.49,0,3.41-.06,4,1.32,3,4.26-9.35,27.4-17.14,55.26-24.56,83.22-3.41,12.85-6.55,25.78-9.8,38.68-1.89,7.53-1.89,7.62-9.43,7.54-5-.06-10.86,1.86-14.67-.77s-3.25-9-4.6-13.78C110.46,104.39,102.53,82.16,94.3,60c-.4-1.07-.94-2.09-1.77-3.93-3.07,5.74-4.18,11.4-5.89,16.75-6.83,21.38-13.38,42.85-19.86,64.34-1,3.23-2.31,4.76-5.85,4.55a99.41,99.41,0,0,0-13.48,0c-4.05.3-5.49-1.55-6.33-5.18-3.18-13.77-6.31-27.56-10-41.2-7.28-27-14.87-53.85-24-80.27-.33-.94-.53-1.94-.93-2.84C4.66,8.7,6.33,7.94,9.56,8c8,.1,16,.14,24,0,3.13-.06,4.33,1.27,5,4.2C43.82,36,49.89,59.7,56.36,83.27c3.14,11.46,6.64,22.82,10,34.22Z"/><path d="M197.45,82.72a675.64,675.64,0,0,0-2.57-68.83c-.42-4.4,1.06-5.54,5.12-5.42,7,.22,14,.23,21,0,4.07-.13,5,1.5,4.86,5.35-.56,19.14-.84,38.28-1.17,57.42,0,1.42-.63,3.24.92,4.14s2.4-.72,3.47-1.37c13.51-8.24,27.69-9.85,42.6-4.34,4.53,1.68,9,3.61,13.61,4.94,21.92,6.32,39.71-15,39.82-30.77A244.64,244.64,0,0,0,323.4,15c-.69-6-.36-6.39,5.49-6.43,7.33,0,14.66.08,22,0,3.24,0,4.29,1.13,4.05,4.47-3,41.08-2.17,82.18.08,123.26.23,4.14-.8,5.69-5.09,5.51-6.65-.29-13.34-.3-20,0-4.54.22-6.07-1.2-5.88-5.9.78-19.29,1.31-38.6,1-57.92,0-1.61.74-3.75-.67-4.71-1.66-1.14-2.94,1-4.3,1.73-14,7.76-28.25,9.23-43.11,2.72A70.28,70.28,0,0,0,261.74,73c-14.47-2.71-28.43,6-34.47,21.22a38.35,38.35,0,0,0-2.55,16.14c.4,9,.61,18,1.1,26.94.18,3.2-.78,4.56-4.13,4.48-7-.16-14-.2-21,0-3.91.12-4.78-1.56-4.58-5.1Q197.61,109.7,197.45,82.72Z"/><path d="M674.25,115.19c0,8.06,0,16.3,0,24.53,0,1.66-1.3,2.18-2.76,2.24s-3,.1-4.5.1q-64.46,0-128.92,0c-7,0-7.18,0-6.81-7.26,1.64-32.43,2.57-64.86.81-97.31-.45-8.31-.76-16.63-1.46-24.92-.28-3.41.45-4.81,4.14-4.8q66.46.13,132.92,0c3.79,0,5,1.37,4.84,5-.21,5.15-.06,10.31-.08,15.47,0,2.39-.69,3.86-3.09,1.71-16-14.31-35.92-15.58-55.75-16.63-15.29-.81-30.64-.44-45.95-.87-4.33-.12-5.87,1.46-6.09,5.65Q560.11,44.51,560.1,71c0,2-.22,4.44,3.15,2.92,14.79-6.65,30.12-6,45.61-3.46a179.57,179.57,0,0,0,24.81,2.68c9,.18,11.49-2,11.84-11,.09-2.3,1.4-2.28,2.88-2.45,5.42-.61,10.15,3.25,11.21,9.15a9.39,9.39,0,0,1-7.46,11.22c-10.16,2.34-20.2.8-30.14-1.64-11.82-2.9-23.66-5.72-36-4.58-15.29,1.41-25.44,12.42-25.87,27.83-.29,10.5.74,20.94,1.42,31.4.22,3.42,1.43,4.94,5.19,4.88,20.14-.3,40.29,0,60.39-2,17.06-1.71,32.61-6.51,44.42-19.84A2.21,2.21,0,0,1,674.25,115.19Z"/><path d="M514.34,110.28c0,10.12,0,19.08,0,28,0,2.7-1.48,3.36-3.82,3.36-25.49,0-51-.07-76.47,0-4.21,0-3.89-2.5-3.75-5.28,1.21-23.78,2.09-47.57,1.66-71.38-.31-17.64-.68-35.29-2.36-52.86-.29-3.09.57-4.25,3.68-4.2,7.66.1,15.33.18,23,0,3.91-.12,4.69,1.4,4.47,5.05-1.91,31.26-2,62.55-1.23,93.84.22,8.66.73,17.3.9,26,.08,3.93,1.72,5.06,5.56,4.84,15.6-.9,28.51-7.29,39.27-18.41C507.9,116.49,510.67,113.88,514.34,110.28Z"/><path d="M406,75.08c.75,19.62,1.53,39.24,2.23,58.86.27,7.73.19,7.73-7.79,7.73-6,0-12-.18-18,.05-4,.16-5.18-1.18-4.91-5.2q2.9-42.87,1.61-85.83c-.35-12.47-1.16-24.93-2-37.37-.3-4.28,1.22-5.54,5.31-5.39,7,.26,14,.27,21,0,4.1-.15,5.09,1.48,4.92,5.28C407.35,33.82,406.14,54.42,406,75.08Z"/><path d="M791.27,19.21C777,11.39,761,9,745.07,8c-14.77-.89-29.63-.16-44.44-.46-4.73-.1-6,1.59-5.66,6.1,1.33,20.42,2.1,40.87,2.1,61.34s-.47,40.92-1.78,61.34c-.32,5.11,1.4,6.24,6,6.14,11.48-.25,23,0,34.46-.12a119.84,119.84,0,0,0,32-4.53c29.74-8.52,49.66-31,52.91-60.19C823.59,51.81,813.52,31.38,791.27,19.21Zm-4.06,84.5c-6.22,25-25.05,36.78-50.05,30.64-13.3-3.27-11.35-.34-11.94-14.75-.32-7.82-.61-15.63-.74-23.45s0-15.65,0-23.47c-.43-17.48.46-34.94,1-52.4.25-7.62.45-7.65,8.14-7.2,26.85,1.57,47.46,18.94,53.55,45.17A95.73,95.73,0,0,1,787.21,103.71Z"/></svg>